<svg xmlns="http://www.w3.org/2000/svg" xmlns:xlink="http://www.w3.org/1999/xlink" width="80" height="60"><g transform="matrix(.833905 0 0 .833905 10.028135 21.420773)"><path d="M-12.026-25.687H83.91v71.95h-95.934z" fill="#7da5d7"/><g transform="matrix(.115296 0 0 .115296 6.603718 -25.861837)"><path d="M499.804 259.32l-11.336-11.337-24.048-72.145h-72.145v168.34l104.21.004a8.02 8.02 0 0 0 8.016-8.016v-65.508c0-4.252-1.69-8.33-4.696-11.337z" fill="#dbd9dc"/><path d="M488.468 247.984l-13.36-40.08H424.34v40.08a8.02 8.02 0 0 0 8.016 8.016h64.13z" fill="#5d5360"/><path d="M424.34 231.952h58.784l-8.016-24.048H424.34z" fill="#4b3f4e"/><path d="M15.516 127.743h368.742a8.02 8.02 0 0 1 8.016 8.016v184.37H15.516a8.02 8.02 0 0 1-8.016-8.016V135.758c0-4.427 3.59-8.015 8.016-8.015z" fill="#96c3f0"/><path d="M392.274 320.13H15.516a8.02 8.02 0 0 1-8.016-8.016v-24.048h384.774z" fill="#7da5d7"/><path d="M424.34 352.194H39.565a8.02 8.02 0 0 1-8.016-8.016V320.13h392.8z" fill="#6f6571"/><g fill="#4b3f4e"><circle r="32.06" cy="352.19" cx="424.34"/><circle r="32.06" cy="352.19" cx="159.81"/><circle r="32.06" cy="352.19" cx="95.68"/></g><use xlink:href="#B"/><use xlink:href="#B" x="64.129"/><use xlink:href="#B" x="328.662"/><path d="M505.107 254.016l-10.084-10.084-20.315-60.946c3.03-.963 5.228-3.798 5.228-7.147a7.5 7.5 0 0 0-7.5-7.5h-72.66v-32.58c0-8.556-6.96-15.516-15.516-15.516H15.516A15.54 15.54 0 0 0 0 135.76v176.354c0 8.556 6.96 15.516 15.516 15.516h8.532v16.544c0 8.556 6.96 15.516 15.516 15.516h17.27c3.516 18.24 19.6 32.064 38.842 32.064 13.182 0 24.87-6.486 32.064-16.428 7.194 9.942 18.883 16.428 32.065 16.428 19.25 0 35.327-13.824 38.842-32.064h186.848c3.516 18.24 19.6 32.064 38.842 32.064 21.816 0 39.564-17.75 39.564-39.564 0-.172-.01-.34-.013-.512h32.594c8.556 0 15.516-6.96 15.516-15.516v-65.508c.001-6.285-2.447-12.194-6.892-16.638zM56.835 344.7h-17.27c-.285 0-.516-.23-.516-.516V327.63h25.645a39.41 39.41 0 0 0-7.858 17.06zm38.842 32.066c-13.545 0-24.564-11.02-24.564-24.564 0-13.493 10.937-24.477 24.4-24.56h.308c13.474.083 24.4 11.067 24.4 24.56-.001 13.543-11.02 24.564-24.566 24.564zm64.13 0c-13.545 0-24.565-11.02-24.565-24.564 0-13.493 10.937-24.477 24.4-24.56h.308c13.474.083 24.4 11.067 24.4 24.56-.001 13.543-11.02 24.564-24.565 24.564zm225.7-32.066H198.65c-1.225-6.358-3.978-12.175-7.86-17.06h145.37a7.5 7.5 0 1 0 0-15H15.516c-.285 0-.516-.23-.516-.516V135.76c0-.285.23-.516.516-.516h368.742c.285 0 .516.23.516.516v176.87H368.23a7.5 7.5 0 1 0 0 15h25.126a39.41 39.41 0 0 0-7.858 17.06zm95.237-96.192h-48.38c-.285 0-.516-.23-.516-.516v-32.58h37.863zm-56.404 128.26c-13.545 0-24.564-11.02-24.564-24.564 0-13.493 10.937-24.477 24.4-24.56h.154c.017 0 .034-.002.052-.003 13.52.028 24.513 11.036 24.513 24.563-.002 13.544-11.02 24.565-24.566 24.565zM497 288.583h-8.532a7.5 7.5 0 1 0 0 15H497v32.58c0 .285-.23.516-.516.516h-35.752c-6.045-14.127-20.08-24.052-36.393-24.052-.052 0-.102.004-.154.004h-24.4V183.85c0-.285.23-.516.516-.516h58.723l5.688 17.064H424.34a7.5 7.5 0 0 0-7.5 7.5v40.08c0 8.556 6.96 15.516 15.516 15.516h61.022l1.124 1.124a8.48 8.48 0 0 1 2.499 6.033zm-457.436 6.983H360.2a7.5 7.5 0 1 0 0-15H39.564a7.5 7.5 0 1 0 0 15z"/></g><path d="M12.996 23.98v1.23q-.718-.344-1.355-.512-.637-.17-1.23-.17-1.03 0-1.593.4-.556.4-.556 1.137 0 .618.368.937.375.312 1.412.506l.762.156q1.412.27 2.08.95.675.675.675 1.8 0 1.355-.912 2.055-.906.7-2.66.7-.662 0-1.412-.15-.743-.15-1.543-.443v-1.3q.768.43 1.505.65.737.22 1.45.22 1.08 0 1.668-.425.587-.425.587-1.212 0-.687-.425-1.074-.418-.387-1.38-.58l-.768-.15q-1.412-.28-2.042-.88-.63-.6-.63-1.668 0-1.237.868-1.95.874-.712 2.405-.712.656 0 1.337.12.68.12 1.393.356zm3.592 7.97v3.7h-1.155v-9.656h1.155v1.062q.362-.625.912-.924.556-.306 1.324-.306 1.274 0 2.067 1.012.8 1.012.8 2.66 0 1.65-.8 2.66-.793 1.012-2.067 1.012-.768 0-1.324-.3-.55-.306-.912-.93zm3.9-2.442q0-1.268-.525-1.986-.518-.725-1.43-.725-.912 0-1.437.725-.518.718-.518 1.986 0 1.268.518 1.992.525.718 1.437.718.912 0 1.43-.718.525-.725.525-1.992zm9.092-.295v.562h-5.284q.075 1.187.712 1.8.643.618 1.786.618.662 0 1.28-.162.625-.162 1.237-.487v1.087q-.618.262-1.268.4-.65.137-1.318.137-1.674 0-2.654-.974-.974-.974-.974-2.636 0-1.718.924-2.723.93-1.012 2.505-1.012 1.412 0 2.23.912.824.906.824 2.467zm-1.15-.337q-.012-.943-.53-1.505-.512-.562-1.362-.562-.962 0-1.543.543-.575.543-.662 1.53zm7.638-1.81V23.28h1.15v9.718h-1.15v-1.05q-.362.625-.918.93-.55.3-1.324.3-1.268 0-2.067-1.012-.793-1.012-.793-2.66 0-1.65.793-2.66.8-1.012 2.067-1.012.774 0 1.324.306.556.3.918.924zm-3.916 2.442q0 1.268.518 1.992.525.718 1.437.718.912 0 1.437-.718.525-.725.525-1.992 0-1.268-.525-1.986-.525-.725-1.437-.725-.912 0-1.437.725-.518.718-.518 1.986zm7.432-3.504h1.15v6.995h-1.15zm0-2.723h1.15v1.455h-1.15zm4.686.737v1.986h2.367v.893H44.27v3.797q0 .856.23 1.1.237.244.956.244h1.18V33h-1.18q-1.33 0-1.836-.493-.506-.5-.506-1.8V26.9h-.843v-.893h.843V24.02zm3.883 1.986h1.15v6.995h-1.15zm0-2.723h1.15v1.455h-1.15zm6.26 3.53q-.924 0-1.46.725-.537.718-.537 1.974 0 1.255.53 1.98.537.718 1.468.718.918 0 1.455-.725.537-.725.537-1.974 0-1.243-.537-1.967-.537-.73-1.455-.73zm0-.974q1.5 0 2.355.974.856.974.856 2.698 0 1.718-.856 2.698-.856.974-2.355.974-1.505 0-2.36-.974-.85-.98-.85-2.698 0-1.724.85-2.698.856-.974 2.36-.974zm10.923 2.94v4.222h-1.15v-4.185q0-.993-.387-1.486-.387-.493-1.162-.493-.93 0-1.468.593-.537.593-.537 1.618V33h-1.155v-6.995h1.155V27.1q.412-.63.968-.943.562-.312 1.293-.312 1.205 0 1.824.75.618.743.618 2.192z"/></g><defs ><path id="B" d="M95.758 344.69h-.08c-4.142 0-7.46 3.358-7.46 7.5s3.398 7.5 7.54 7.5a7.5 7.5 0 1 0 0-15z"/></defs></svg>