<svg xmlns="http://www.w3.org/2000/svg" width="80" height="60"><g transform="matrix(1.702635 0 0 1.702635 0 4.49967)"><path d="M0-2.643h46.986v35.24H0z" fill="#ffcb01"/><path d="M8.73 11.413L7.276 13.4h7.93c.4 0 .396.15.2.418l-.735 1.012c-.103.14-.3.392.327.392h3.243l.96-1.306c.596-.8.052-2.492-2.08-2.492zm-2.043 6.44L9.6 13.882h3.627c.4 0 .396.152.2.418l-.74 1.008c-.103.14-.3.392.327.392h4.858c-.403.554-1.715 2.154-4.067 2.154zM23.425 15.7l-1.585 2.155h-4.18l1.585-2.155zm6.404-.488H19.604l2.796-3.798h4.18l-1.602 2.178h1.865l1.604-2.178h4.18zm-.36.488l-1.585 2.155h-4.18L25.3 15.7zM.72 16.55h6.16l-.336.457H.722zm0-.85h6.784l-.337.457H.722zm0 1.7h5.533l-.335.455H.722zm45.543-.393H40.13l.337-.457h5.8zm0 .848h-6.76l.334-.455h6.425zM41.1 15.7h5.174v.458h-5.5zm-2.678-4.286l-2.796 3.798h-4.43l2.798-3.798zM30.83 15.7l-.454.618c-.524.7-.06 1.536 1.652 1.536h6.712l1.585-2.154z" fill="#d80613"/></g></svg>