<svg xmlns="http://www.w3.org/2000/svg" width="80" height="60"><path d="M49.35 37.78c-1.114.31-2.565.44-3.81.44-3.238 0-5.363-1.684-5.363-4.767 0-2.927 1.995-4.82 4.896-4.82.648 0 1.347.078 1.762.285v-4.25h2.513zm-2.513-6.684c-.39-.18-.933-.285-1.554-.285-1.53 0-2.54.933-2.54 2.565 0 1.736 1.088 2.72 2.876 2.72.31 0 .803 0 1.218-.104zM70 37.78c-1.114.31-2.565.44-3.834.44-3.213 0-5.363-1.684-5.363-4.767 0-2.927 1.995-4.82 4.897-4.82.674 0 1.347.078 1.762.285v-4.25H70zm-2.54-6.684c-.39-.18-.907-.285-1.53-.285-1.554 0-2.565.933-2.565 2.565 0 1.736 1.114 2.72 2.902 2.72.31 0 .777 0 1.192-.104zm-14.146 0c.415-.18 1.01-.233 1.503-.233 1.554 0 2.617.88 2.617 2.46 0 1.865-1.192 2.72-2.772 2.746v2.15h.13c3.265 0 5.207-1.788 5.207-4.974 0-2.902-2.073-4.61-5.13-4.61-1.555 0-3.083.363-4.093.777v12.306h2.54zm0 0" fill="#3f3f42" fill-rule="evenodd"/><path d="M9.997 24.956l-.033 11.53 11.05 6.45 11.038-6.34.044-11.665-6.9 3.97-1.013-.577-.008-1.104 7.36-4.23-10.48-5.596-10.506 5.596 11.464 6.543.043 9.843-1 .556-1-.55.017-8.7z" fill="#dc0032"/></svg>