<svg xmlns="http://www.w3.org/2000/svg" width="80" height="60"><g transform="matrix(1.702635 0 0 1.702635 0 4.49967)"><path d="M0-2.643h46.986v35.24H0z" fill="#4d148c"/><path d="M32.145 13.627h3.107l1.46 1.607 1.404-1.607h2.998l-2.93 3.295 2.97 3.322h-3.12l-1.445-1.62-1.432 1.62h-3.012l2.945-3.308zm-3.345 0h3.335v2.236H28.8v2.052h3.335v2.33H26.36V9.82h5.786v2.323H28.8z" fill="#ff5900"/><path d="M23.92 9.82v4.266h-.027c-.54-.62-1.216-.837-2-.837-1.604 0-2.813 1.09-3.237 2.533-.484-1.59-1.732-2.563-3.583-2.563-1.503 0-2.69.674-3.308 1.773v-1.366H8.658v-1.483h3.4V9.82H5.9v10.424h2.77v-4.382h2.76c-.082.322-.126.667-.126 1.03 0 2.174 1.66 3.7 3.78 3.7 1.783 0 2.958-.837 3.58-2.363H16.28c-.32.46-.564.595-1.206.595-.744 0-1.386-.65-1.386-1.418h4.832c.2 1.727 1.555 3.216 3.4 3.216.796 0 1.526-.392 1.97-1.053h.027v.675h2.44V9.82zm-10.154 6.073c.154-.662.668-1.095 1.31-1.095.706 0 1.193.42 1.32 1.095.054 0-2.63 0-2.63 0zm8.672 2.764c-.9 0-1.46-.838-1.46-1.714 0-.935.486-1.835 1.46-1.835 1.008 0 1.4.9 1.4 1.835 0 .887-.426 1.714-1.4 1.714z" fill="#fff"/></g></svg>