<svg xmlns="http://www.w3.org/2000/svg" width="80" height="60"><g transform="matrix(.167931 0 0 .167931 -58.067079 -15.084598)"><path d="M345.78 89.826h476.387v357.3H345.78z" fill="#1c146b"/><path d="M685.186 291.476l12.262-62.818h-21.3l-16.236 83.86h38.85l4.005-21.042zm62.85-44.18c3.45 0 8.503.77 11.43 1.85l3.728-19.44c-4.53-.524-9.304-1.047-14.634-1.047-23.168 0-34.074 13.833-34.074 29.268 0 20.24 20.765 19.964 20.765 28.744 0 4.282-3.204 6.655-9.58 6.655-4.806 0-10.906-1.047-14.634-2.65l-4.005 20.765c4.252 1.078 10.382 1.602 16.513 1.602 20.765 0 35.122-13.864 35.122-30.624 0-19.687-20.765-19.964-20.765-28.744 0-3.728 2.68-6.377 10.136-6.377m-104.905-18.64c-31.948 0-52.442 23.938-52.442 53.237 0 18.085 9.585 30.87 34.08 30.87 9.58 0 19.687-1.85 27.943-5.33l7.733-40.452h-21.32l-4.775 24.74c-1.88.555-4.005.555-5.854.555-10.66 0-14.388-5.854-14.388-13.833 0-14.388 8.78-29.576 27.173-29.576 5.053 0 10.63 1.078 15.682 2.403.555.277 1.078.524 1.602.524 1.602.8 3.204 1.356 4.282 1.88l4.498-21.843c-7.425-1.848-16.236-3.173-24.215-3.173" fill="#fff" fill-rule="evenodd"/><path d="M482.41 228.81l-5.74 27.85h39.595c-32.805 48.616-97.925 40.36-115.147 20.2-14.825-17.376-2.018-47.075 41.93-65.437-43.505 13.248-67.92 48-53.573 71.414 16.26 26.526 66.965 37.586 112.026 24.708 30.115-10.567 42.97-25.417 47.664-33.396l-7.376 38.54h29.6l16.057-83.89z" fill="#eaaf0f" fill-rule="evenodd"/></g></svg>