<svg xmlns="http://www.w3.org/2000/svg" width="80" height="60"><g transform="matrix(.167931 0 0 .167931 -58.067079 -15.084598)"><path d="M345.78 89.826h476.387v357.3H345.78z" fill="#fcc310"/><path d="M723.984 329.984c-17.73 0-27.494-10.92-27.494-28.103v-44.348h-16.724V241.02h16.724v-17.392l22.658-7.25v24.642h20.045v16.515h-20.045v40.608c0 7.4 1.985 14.27 10.62 14.27 4.04 0 7.958-.838 10.312-2.274l.628 17.81c-4.707 1.396-9.933 2.034-16.724 2.034zm-88.357 0c-8.636 0-17.402-1.566-25.65-3.72l1.296-18.53c7.12 3.6 14.53 5.684 22.28 5.684 5.814 0 14.88-2.094 14.88-10.61 0-17.053-39.332-5.385-39.332-36.81 0-18.778 16.375-27.046 34.156-27.046 10.61 0 17.512 1.735 24.592 3.25l-1.486 17.063c-6.94-2.403-11.997-3.76-20.244-3.76-6.063 0-13.363 2.244-13.363 9.733 0 13.772 39.342 4.916 39.342 36.35 0 20.394-18.02 28.392-36.47 28.392zm-81.546 0c-28.72 0-45.445-19.845-45.445-44.906 0-28.73 19.756-46.123 45.445-46.123 25.86 0 45.615 17.392 45.615 46.123 0 25.06-16.724 44.906-45.615 44.906zm-90.71-46.75h-10.002v44.717h-23.625V210.114h29.908c25.66 0 49.145 7.4 49.145 35.592 0 27.484-20.115 37.527-45.425 37.527zm-1.735-54.56h-8.267v35.94h8.267c11.877 0 22.488-3.8 22.488-17.562 0-13.613-10.282-18.38-22.488-18.38zm92.446 27.843c-14.7 0-21.8 12.845-21.8 25.91 0 14.32 4.597 29.988 21.8 29.988 17.352 0 21.94-15.497 21.94-29.988 0-13.343-7.07-25.91-21.94-25.91z" fill="#231f20" fill-rule="evenodd"/></g></svg>