<svg xmlns="http://www.w3.org/2000/svg" width="80" height="60"><g transform="matrix(.167931 0 0 .167931 -58.067079 -15.084598)"><path d="M345.78 89.826h476.387v357.3H345.78z" fill="#f60"/><path d="M494.667 340.688h21.958v3.954h-17.26v10.28h16.54v3.954h-16.54v12.584h17.678v3.954h-22.377zm51.617 8.676l-9.42 12.677 9.9 13.375h-5.048l-7.583-10.235-7.583 10.235h-5.048l10.12-13.63-9.258-12.42h5.048l6.9 9.28 6.9-9.28zM556.96 371.5v13.817h-4.303v-35.962h4.303v3.954q1.35-2.326 3.396-3.443 2.07-1.14 4.93-1.14 4.745 0 7.7 3.768 2.977 3.768 2.977 9.9 0 6.14-2.977 9.9-2.954 3.768-7.7 3.768-2.86 0-4.93-1.117-2.047-1.14-3.396-3.466zm14.56-9.095q0-4.722-1.954-7.397-1.93-2.698-5.327-2.698-3.396 0-5.35 2.698-1.93 2.675-1.93 7.397 0 4.722 1.93 7.42 1.954 2.675 5.35 2.675 3.396 0 5.327-2.675 1.954-2.698 1.954-7.42zm26.636-9.05q-.72-.42-1.582-.605-.837-.2-1.86-.2-3.63 0-5.583 2.373-1.93 2.35-1.93 6.77v13.724h-4.303v-26.052h4.303v4.047q1.35-2.373 3.512-3.512 2.163-1.163 5.257-1.163.442 0 .977.07.535.046 1.186.163zm25.796 7.955v2.094h-19.68q.28 4.42 2.652 6.746 2.396 2.303 6.653 2.303 2.466 0 4.77-.605 2.326-.605 4.606-1.814v4.047q-2.303.977-4.722 1.5-2.42.512-4.908.512-6.234 0-9.886-3.63-3.63-3.63-3.63-9.816 0-6.397 3.443-10.142 3.466-3.768 9.328-3.768 5.257 0 8.304 3.396 3.07 3.373 3.07 9.188zm-4.28-1.256q-.046-3.512-1.977-5.606-1.907-2.094-5.07-2.094-3.582 0-5.745 2.024-2.14 2.024-2.466 5.7zm27.914-9.932v4.047q-1.814-.93-3.768-1.396-1.954-.465-4.047-.465-3.187 0-4.792.977-1.582.977-1.582 2.93 0 1.5 1.14 2.35 1.14.837 4.582 1.605l1.465.326q4.56.977 6.467 2.768 1.93 1.768 1.93 4.955 0 3.63-2.884 5.745-2.86 2.117-7.886 2.117-2.093 0-4.373-.42-2.256-.395-4.77-1.2v-4.42q2.373 1.233 4.675 1.86 2.303.605 4.56.605 3.024 0 4.652-1.023 1.628-1.047 1.628-2.93 0-1.745-1.186-2.675-1.163-.93-5.14-1.8l-1.5-.35q-3.978-.837-5.745-2.56-1.768-1.745-1.768-4.77 0-3.675 2.605-5.676 2.605-2 7.397-2 2.373 0 4.466.35 2.094.35 3.86 1.047zm24.844 0v4.047q-1.814-.93-3.768-1.396-1.954-.465-4.047-.465-3.187 0-4.792.977-1.582.977-1.582 2.93 0 1.5 1.14 2.35 1.14.837 4.582 1.605l1.465.326q4.56.977 6.467 2.768 1.93 1.768 1.93 4.955 0 3.63-2.884 5.745-2.86 2.117-7.886 2.117-2.093 0-4.373-.42-2.256-.395-4.77-1.2v-4.42q2.373 1.233 4.675 1.86 2.303.605 4.56.605 3.024 0 4.652-1.023 1.628-1.047 1.628-2.93 0-1.745-1.186-2.675-1.163-.93-5.14-1.8l-1.5-.35q-3.978-.837-5.745-2.56-1.768-1.745-1.768-4.77 0-3.675 2.605-5.676 2.605-2 7.397-2 2.373 0 4.466.35 2.093.35 3.86 1.047z" fill="#fff"/><path d="M606.358 242.77a1.584 1.584 0 0 1 1.6 1.6v48.584a1.449 1.449 0 0 1-1.472 1.472h-10.05a3.128 3.128 0 0 1-1.728-.832l-18.627-25.412a11.647 11.647 0 0 1-1.216-2.304v27.076a1.465 1.465 0 0 1-1.536 1.472h-11.266a1.465 1.465 0 0 1-1.536-1.472V244.37a1.465 1.465 0 0 1 1.536-1.472h10.05a2.768 2.768 0 0 1 1.664.832l18.627 25.412a13.637 13.637 0 0 1 1.28 2.304V244.37a1.449 1.449 0 0 1 1.472-1.472c0-.128 10.498-.128 11.202-.128zm79.373 70.348c-24.452 0-44.36-19.97-44.36-44.487 0-24.58 19.907-44.55 44.36-44.55 24.388 0 44.295 19.97 44.295 44.55 0 24.516-19.907 44.487-44.295 44.487zm-101.457 0c-24.452 0-44.36-19.97-44.36-44.487 0-24.58 19.907-44.55 44.36-44.55 24.388 0 44.295 19.97 44.295 44.55 0 24.516-19.907 44.487-44.295 44.487zm-101.457 0c-24.452 0-44.36-19.97-44.36-44.487 0-24.58 19.907-44.55 44.36-44.55 24.388 0 44.295 19.97 44.295 44.55-.064 24.516-19.97 44.487-44.295 44.487zM685.73 211.15c-22.02 0-41.16 12.6-50.824 30.98a57.074 57.074 0 0 0-101.521 0 57.24 57.24 0 0 0-50.824-30.981c-31.3 0-56.97 25.796-56.97 57.482 0 31.62 25.668 57.418 57.225 57.418 21.956 0 41.16-12.6 50.76-30.98a57.215 57.215 0 0 0 50.76 30.981c22.02 0 41.16-12.6 50.824-30.98a57.141 57.141 0 0 0 50.76 30.981c31.557 0 57.225-25.796 57.225-57.418-.192-31.685-25.924-57.482-57.418-57.482zM461.3 243.73a1.449 1.449 0 0 0-1.472 1.472v9.666a1.449 1.449 0 0 0 1.472 1.472h11.65a14.641 14.641 0 0 0 2.24-.192v38.086a1.449 1.449 0 0 0 1.472 1.472h11.97a1.449 1.449 0 0 0 1.472-1.472V256.15a25.384 25.384 0 0 0 2.816.192h11.138a1.449 1.449 0 0 0 1.472-1.472v-9.666a1.449 1.449 0 0 0-1.472-1.472zm245.865 0a1.449 1.449 0 0 1 1.472 1.472v9.666a1.449 1.449 0 0 1-1.472 1.472H696.1a25.726 25.726 0 0 1-2.88-.192v38.086a1.449 1.449 0 0 1-1.472 1.472h-11.97a1.449 1.449 0 0 1-1.472-1.472V256.15a14.641 14.641 0 0 1-2.24.192h-11.65a1.449 1.449 0 0 1-1.472-1.472v-9.666a1.449 1.449 0 0 1 1.472-1.472z" fill="#fff"/></g></svg>