<svg xmlns="http://www.w3.org/2000/svg" width="80" height="60"><g transform="matrix(.167931 0 0 .167931 -58.067079 -15.084598)"><g fill="#301506"><path d="M345.78 89.826h476.387v357.3H345.78z"/><path d="M503.626 227.407l.734 83.26 18.706 23.107 56.12 29.71 68.956-33.744 14.305-34.11-1.467-110.403-52.084-1.467-54.284 8.803-49.516 28.61z" fill-rule="evenodd"/></g><path d="M583.975 167.24c-32.688 0-61.202 6.33-84.753 18.81v99.776c0 20.995 7.888 38.55 22.808 50.78 13.853 11.364 56.696 30.09 61.946 32.365 4.98-2.167 48.33-21.183 61.963-32.365 14.912-12.224 22.802-29.785 22.802-50.78v-99.776c-23.554-12.482-52.068-18.8-84.77-18.8zm48.402 19.32c9.748.127 19.32.73 28.572 1.59v97.675c0 18.77-6.81 33.932-19.952 44.757-11.74 9.668-47.142 25.53-57.02 29.884-10.01-4.413-45.5-20.475-57.03-29.88-13.064-10.64-19.94-26.16-19.94-44.757v-57.073c37.542-34.43 83.13-42.745 125.368-42.193zm-46.193 45.48c-8.043 0-14.532 1.798-19.875 5.246v96.1h14.75V302.34c1.472.434 3.61.84 6.636.84 16.363 0 25.768-14.75 25.768-36.288 0-21.495-9.684-34.852-27.28-34.852zm50.404 0c-9.7.28-19.847 7.31-19.785 19.222.025 7.844 2.2 13.71 14.357 20.844 6.488 3.808 9.102 6.318 9.214 10.946.124 5.144-3.43 8.246-8.84 8.225-4.706-.037-10.332-2.65-14.1-6.003v13.575c4.62 2.754 10.382 4.575 16.205 4.575 14.573 0 21.08-10.294 21.36-19.727.277-8.597-2.1-15.103-14.422-22.343-5.5-3.226-9.843-5.345-9.698-10.713.145-5.24 4.495-7.08 8.67-7.043 5.153.045 10.137 2.9 13.213 6.054v-12.82c-2.593-1.997-8.082-5.042-16.18-4.794zm-122.05 1.493v46.355c0 15.627 7.392 23.54 21.98 23.54 9.027 0 16.588-2.09 22.22-5.92v-63.974h-14.72v55.58c-1.604 1.1-3.984 1.803-6.978 1.803-6.757 0-7.767-6.196-7.767-10.377v-47.006h-14.738zm71.745 10.383c8.556 0 12.102 6.83 12.102 23.35 0 16.12-4.056 23.907-12.54 23.907-1.997 0-3.733-.495-4.788-.892v-45.3c1.195-.595 3.226-1.066 5.227-1.066z" fill="#fab80a"/></g></svg>