<svg xmlns="http://www.w3.org/2000/svg" xmlns:xlink="http://www.w3.org/1999/xlink" width="80" height="60"><g transform="matrix(.833905 0 0 .833905 10.028135 21.420773)"><g transform="matrix(.115296 0 0 .115296 6.603718 -25.861837)"><path d="M499.804 259.32l-11.336-11.337-24.048-72.145h-72.145v168.34l104.21.004a8.02 8.02 0 0 0 8.016-8.016v-65.508c0-4.252-1.69-8.33-4.696-11.337z" fill="#dbd9dc"/><path d="M488.468 247.984l-13.36-40.08H424.34v40.08a8.02 8.02 0 0 0 8.016 8.016h64.13z" fill="#5d5360"/><path d="M424.34 231.952h58.784l-8.016-24.048H424.34z" fill="#4b3f4e"/><path d="M15.516 127.743h368.742a8.02 8.02 0 0 1 8.016 8.016v184.37H15.516a8.02 8.02 0 0 1-8.016-8.016V135.758c0-4.427 3.59-8.015 8.016-8.015z" fill="#96c3f0"/><path d="M392.274 320.13H15.516a8.02 8.02 0 0 1-8.016-8.016v-24.048h384.774z" fill="#7da5d7"/><path d="M424.34 352.194H39.565a8.02 8.02 0 0 1-8.016-8.016V320.13h392.8z" fill="#6f6571"/><g fill="#4b3f4e"><circle r="32.06" cy="352.19" cx="424.34"/><circle r="32.06" cy="352.19" cx="159.81"/><circle r="32.06" cy="352.19" cx="95.68"/></g><use xlink:href="#B"/><use xlink:href="#B" x="64.129"/><use xlink:href="#B" x="328.662"/><path d="M505.107 254.016l-10.084-10.084-20.315-60.946c3.03-.963 5.228-3.798 5.228-7.147a7.5 7.5 0 0 0-7.5-7.5h-72.66v-32.58c0-8.556-6.96-15.516-15.516-15.516H15.516A15.54 15.54 0 0 0 0 135.76v176.354c0 8.556 6.96 15.516 15.516 15.516h8.532v16.544c0 8.556 6.96 15.516 15.516 15.516h17.27c3.516 18.24 19.6 32.064 38.842 32.064 13.182 0 24.87-6.486 32.064-16.428 7.194 9.942 18.883 16.428 32.065 16.428 19.25 0 35.327-13.824 38.842-32.064h186.848c3.516 18.24 19.6 32.064 38.842 32.064 21.816 0 39.564-17.75 39.564-39.564 0-.172-.01-.34-.013-.512h32.594c8.556 0 15.516-6.96 15.516-15.516v-65.508c.001-6.285-2.447-12.194-6.892-16.638zM56.835 344.7h-17.27c-.285 0-.516-.23-.516-.516V327.63h25.645a39.41 39.41 0 0 0-7.858 17.06zm38.842 32.066c-13.545 0-24.564-11.02-24.564-24.564 0-13.493 10.937-24.477 24.4-24.56h.308c13.474.083 24.4 11.067 24.4 24.56-.001 13.543-11.02 24.564-24.566 24.564zm64.13 0c-13.545 0-24.565-11.02-24.565-24.564 0-13.493 10.937-24.477 24.4-24.56h.308c13.474.083 24.4 11.067 24.4 24.56-.001 13.543-11.02 24.564-24.565 24.564zm225.7-32.066H198.65c-1.225-6.358-3.978-12.175-7.86-17.06h145.37a7.5 7.5 0 1 0 0-15H15.516c-.285 0-.516-.23-.516-.516V135.76c0-.285.23-.516.516-.516h368.742c.285 0 .516.23.516.516v176.87H368.23a7.5 7.5 0 1 0 0 15h25.126a39.41 39.41 0 0 0-7.858 17.06zm95.237-96.192h-48.38c-.285 0-.516-.23-.516-.516v-32.58h37.863zm-56.404 128.26c-13.545 0-24.564-11.02-24.564-24.564 0-13.493 10.937-24.477 24.4-24.56h.154c.017 0 .034-.002.052-.003 13.52.028 24.513 11.036 24.513 24.563-.002 13.544-11.02 24.565-24.566 24.565zM497 288.583h-8.532a7.5 7.5 0 1 0 0 15H497v32.58c0 .285-.23.516-.516.516h-35.752c-6.045-14.127-20.08-24.052-36.393-24.052-.052 0-.102.004-.154.004h-24.4V183.85c0-.285.23-.516.516-.516h58.723l5.688 17.064H424.34a7.5 7.5 0 0 0-7.5 7.5v40.08c0 8.556 6.96 15.516 15.516 15.516h61.022l1.124 1.124a8.48 8.48 0 0 1 2.499 6.033zm-457.436 6.983H360.2a7.5 7.5 0 1 0 0-15H39.564a7.5 7.5 0 1 0 0 15z"/></g><path d="M20.785 26.272v1.074q-.487-.27-.98-.4-.487-.137-.987-.137-1.118 0-1.736.712-.618.706-.618 1.986 0 1.28.618 1.992.618.706 1.736.706.5 0 .987-.13.493-.137.98-.406v1.062q-.48.225-1 .337-.512.112-1.093.112-1.58 0-2.5-.993-.93-.993-.93-2.68 0-1.7.937-2.692.943-.98 2.58-.98.53 0 1.037.112.506.106.98.325zm5.2 3.2q-1.393 0-1.93.32-.537.32-.537 1.087 0 .612.4.974.406.356 1.1.356.956 0 1.53-.675.58-.68.58-1.805v-.256zm2.292-.475v4h-1.15v-1.062q-.393.637-.98.943-.587.3-1.437.3-1.074 0-1.7-.6-.63-.606-.63-1.618 0-1.18.787-1.78.793-.6 2.36-.6h1.6v-.112q0-.793-.525-1.224-.518-.437-1.46-.437-.6 0-1.168.144-.568.144-1.093.43V26.32q.63-.244 1.224-.362.593-.125 1.155-.125 1.518 0 2.267.787.75.787.75 2.386z"/><use xlink:href="#C"/><path d="M39.74 27.077q-.194-.112-.425-.162-.225-.056-.5-.056-.974 0-1.5.637-.518.63-.518 1.818V33h-1.155v-6.995H36.8V27.1q.362-.637.943-.943.58-.312 1.412-.312.12 0 .262.02.144.012.32.044zm1.218-1.074h1.15v6.995h-1.15zm0-2.723h1.15v1.455h-1.15zm9.532 5.933v.562h-5.284q.075 1.187.712 1.8.643.618 1.786.618.662 0 1.28-.162.625-.162 1.237-.487v1.087q-.618.262-1.268.4-.65.137-1.318.137-1.674 0-2.654-.974-.974-.974-.974-2.636 0-1.718.924-2.723.93-1.012 2.505-1.012 1.412 0 2.23.912.824.906.824 2.467zm-1.15-.337q-.012-.943-.53-1.505-.512-.562-1.362-.562-.962 0-1.543.543-.575.543-.662 1.53z"/><use xlink:href="#C" x="21.736"/></g><defs ><path id="B" d="M95.758 344.69h-.08c-4.142 0-7.46 3.358-7.46 7.5s3.398 7.5 7.54 7.5a7.5 7.5 0 1 0 0-15z"/><path id="C" d="M34.694 27.077q-.194-.112-.425-.162-.225-.056-.5-.056-.974 0-1.5.637-.518.63-.518 1.818v3.685h-1.155v-6.995h1.155V27.1q.362-.637.943-.943.58-.312 1.412-.312.12 0 .262.02.144.012.32.044z"/></defs></svg>