<svg xmlns="http://www.w3.org/2000/svg" xmlns:xlink="http://www.w3.org/1999/xlink" width="80" height="60"><g transform="matrix(1.702635 0 0 1.702635 0 4.49967)"><path d="M8.73 11.413L7.276 13.4h7.93c.4 0 .396.15.2.418l-.735 1.012c-.103.14-.3.392.327.392h3.243l.96-1.306c.596-.8.052-2.492-2.08-2.492zm-2.043 6.44L9.6 13.882h3.627c.4 0 .396.152.2.418l-.74 1.008c-.103.14-.3.392.327.392h4.858c-.403.554-1.715 2.154-4.067 2.154zM23.425 15.7l-1.585 2.155h-4.18l1.585-2.155zm6.404-.488H19.604l2.796-3.798h4.18l-1.602 2.178h1.865l1.604-2.178h4.18zm-.36.488l-1.585 2.155h-4.18L25.3 15.7zM.72 16.55h6.16l-.336.457H.722zm0-.85h6.784l-.337.457H.722zm0 1.7h5.533l-.335.455H.722zm45.543-.393H40.13l.337-.457h5.8zm0 .848h-6.76l.334-.455h6.425zM41.1 15.7h5.174v.458h-5.5zm-2.678-4.286l-2.796 3.798h-4.43l2.798-3.798zM30.83 15.7l-.454.618c-.524.7-.06 1.536 1.652 1.536h6.712l1.585-2.154z" fill="#d80613"/><g fill="#d50029"><path d="M16.535 23.344l.572-.775h.93l.22-.297h-.93l.507-.687h1.02l.22-.297h-1.37L15.97 23.64h1.37l.22-.296zm2.953.296h.442l.003-1.23 1.652-1.122h-.4l-1.315.903.014-.903h-.42l-.013 1.13-1.803 1.223h.42l1.433-.997z"/><path d="M22.115 21.585h.298c.217 0 .46.108.24.404-.23.3-.58.414-.796.414H21.5zm-1.867 2.055h.35l.694-.94h.343a1.73 1.73 0 0 0 1.388-.708c.395-.536.103-.704-.4-.704h-.64zm2.018 0h.35l.77-1.044h.2c.186 0 .3 0 .24.23l-.227.815h.4l.23-.937c.03-.145.015-.195-.064-.236l.005-.007c.32-.047.7-.25.9-.536.415-.563.004-.637-.48-.637H24zm1.867-2.055h.336c.323 0 .4.135.235.347-.167.226-.467.367-.8.367h-.298z" fill-rule="evenodd"/><path d="M24.944 23.344l.572-.775h.93l.22-.297h-.93l.507-.687h1.02l.22-.297H26.1l-1.735 2.352h1.37l.22-.296z"/><use xlink:href="#B"/><use xlink:href="#B" x="1.752"/></g></g><defs ><path id="B" d="M29.168 21.333c-.126-.057-.3-.084-.46-.084-.442 0-.95.222-1.258.64-.54.73.62.586.23 1.112a1.03 1.03 0 0 1-.764.384.91.91 0 0 1-.424-.115l-.266.313c.124.05.257.098.43.098.49 0 1.04-.2 1.41-.7.572-.775-.557-.67-.223-1.122.182-.246.462-.313.66-.313a.69.69 0 0 1 .387.098z"/></defs></svg>