<svg xmlns="http://www.w3.org/2000/svg" width="80" height="60"><g fill="#ff5900"><path d="M54.73 27.702h5.29l2.483 2.737 2.39-2.737H70l-4.99 5.61 5.058 5.656h-5.31l-2.46-2.76-2.438 2.76h-5.13l5.013-5.633z"/><path d="M49.053 27.702h5.678v3.807h-5.678v3.493h5.678v3.967h-9.85V21.22h9.85v3.956h-5.678z"/></g><path d="M40.725 21.22v7.263h-.046c-.92-1.057-2.07-1.425-3.403-1.425-2.732 0-4.8 1.858-5.512 4.313-.825-2.705-2.95-4.364-6.1-4.364-2.558 0-4.58 1.148-5.633 3.02v-2.326h-5.29v-2.525h5.77V21.22H10.028V38.97h4.714v-7.46h4.7a7.07 7.07 0 0 0-.215 1.755c0 3.702 2.83 6.3 6.438 6.3 3.035 0 5.036-1.425 6.093-4.023h-4.04c-.546.78-.96 1.012-2.053 1.012-1.267 0-2.36-1.105-2.36-2.415h8.226c.357 2.94 2.648 5.476 5.79 5.476 1.356 0 2.598-.667 3.356-1.793h.046v1.15h4.155V21.22zm-17.29 10.34c.262-1.127 1.137-1.864 2.228-1.864 1.202 0 2.03.714 2.25 1.864.092 0-4.478 0-4.478 0zm14.766 4.706c-1.532 0-2.484-1.428-2.484-2.918 0-1.593.828-3.125 2.484-3.125 1.717 0 2.4 1.532 2.4 3.125 0 1.5-.725 2.918-2.4 2.918z" fill="#4d148c"/></svg>