<svg xmlns="http://www.w3.org/2000/svg" width="80" height="60"><g transform="matrix(.167931 0 0 .167931 -58.067079 -15.084598)"><path d="M685.186 291.476l12.262-62.818h-21.3l-16.236 83.86h38.85l4.005-21.042zm62.85-44.18c3.45 0 8.503.77 11.43 1.85l3.728-19.44c-4.53-.524-9.304-1.047-14.634-1.047-23.168 0-34.074 13.833-34.074 29.268 0 20.24 20.765 19.964 20.765 28.744 0 4.282-3.204 6.655-9.58 6.655-4.806 0-10.906-1.047-14.634-2.65l-4.005 20.765c4.252 1.078 10.382 1.602 16.513 1.602 20.765 0 35.122-13.864 35.122-30.624 0-19.687-20.765-19.964-20.765-28.744 0-3.728 2.68-6.377 10.136-6.377m-104.905-18.64c-31.948 0-52.442 23.938-52.442 53.237 0 18.085 9.585 30.87 34.08 30.87 9.58 0 19.687-1.85 27.943-5.33l7.733-40.452h-21.32l-4.775 24.74c-1.88.555-4.005.555-5.854.555-10.66 0-14.388-5.854-14.388-13.833 0-14.388 8.78-29.576 27.173-29.576 5.053 0 10.63 1.078 15.682 2.403.555.277 1.078.524 1.602.524 1.602.8 3.204 1.356 4.282 1.88l4.498-21.843c-7.425-1.848-16.236-3.173-24.215-3.173" fill="#1c146b" fill-rule="evenodd"/><path d="M482.41 228.81l-5.74 27.85h39.595c-32.805 48.616-97.925 40.36-115.147 20.2-14.825-17.376-2.018-47.075 41.93-65.437-43.505 13.248-67.92 48-53.573 71.414 16.26 26.526 66.965 37.586 112.026 24.708 30.115-10.567 42.97-25.417 47.664-33.396l-7.376 38.54h29.6l16.057-83.89z" fill="#eaaf0f" fill-rule="evenodd"/><path d="M494.667 328.778h21.958v3.954h-17.26v10.28h16.54v3.954h-16.54v12.584h17.678v3.954h-22.377zm51.617 8.676l-9.42 12.677 9.9 13.375h-5.048l-7.583-10.235-7.583 10.235h-5.048l10.12-13.63-9.258-12.42h5.048l6.9 9.28 6.9-9.28zM556.96 359.6v13.817h-4.303v-35.962h4.303v3.954q1.35-2.326 3.396-3.443 2.07-1.14 4.93-1.14 4.745 0 7.7 3.768 2.977 3.768 2.977 9.9 0 6.14-2.977 9.9-2.954 3.768-7.7 3.768-2.86 0-4.93-1.117-2.047-1.14-3.396-3.466zm14.56-9.095q0-4.722-1.954-7.397-1.93-2.698-5.327-2.698-3.396 0-5.35 2.698-1.93 2.675-1.93 7.397 0 4.722 1.93 7.42 1.954 2.675 5.35 2.675 3.396 0 5.327-2.675 1.954-2.698 1.954-7.42zm26.636-9.05q-.72-.42-1.582-.605-.837-.2-1.86-.2-3.63 0-5.583 2.373-1.93 2.35-1.93 6.77v13.724h-4.303v-26.052h4.303v4.047q1.35-2.373 3.512-3.512 2.163-1.163 5.257-1.163.442 0 .977.07.535.046 1.186.163zm25.796 7.945v2.094h-19.68q.28 4.42 2.652 6.746 2.396 2.303 6.653 2.303 2.466 0 4.77-.605 2.326-.605 4.606-1.814v4.047q-2.303.977-4.722 1.5-2.42.512-4.908.512-6.234 0-9.886-3.63-3.63-3.63-3.63-9.816 0-6.397 3.443-10.142 3.466-3.768 9.328-3.768 5.257 0 8.304 3.396 3.07 3.373 3.07 9.188zm-4.28-1.256q-.046-3.512-1.977-5.606-1.907-2.094-5.07-2.094-3.582 0-5.745 2.024-2.14 2.024-2.466 5.7zm27.914-9.922v4.047q-1.814-.93-3.768-1.396-1.954-.465-4.047-.465-3.187 0-4.792.977-1.582.977-1.582 2.93 0 1.5 1.14 2.35 1.14.837 4.582 1.605l1.465.326q4.56.977 6.467 2.768 1.93 1.768 1.93 4.955 0 3.63-2.884 5.745-2.86 2.117-7.886 2.117-2.093 0-4.373-.42-2.256-.395-4.77-1.2v-4.42q2.373 1.233 4.675 1.86 2.303.605 4.56.605 3.024 0 4.652-1.023 1.628-1.047 1.628-2.93 0-1.745-1.186-2.675-1.163-.93-5.14-1.8l-1.5-.35q-3.978-.837-5.745-2.56-1.768-1.745-1.768-4.77 0-3.675 2.605-5.676 2.605-2 7.397-2 2.373 0 4.466.35 2.094.35 3.86 1.047zm24.844 0v4.047q-1.814-.93-3.768-1.396-1.954-.465-4.047-.465-3.187 0-4.792.977-1.582.977-1.582 2.93 0 1.5 1.14 2.35 1.14.837 4.582 1.605l1.465.326q4.56.977 6.467 2.768 1.93 1.768 1.93 4.955 0 3.63-2.884 5.745-2.86 2.117-7.886 2.117-2.093 0-4.373-.42-2.256-.395-4.77-1.2v-4.42q2.373 1.233 4.675 1.86 2.303.605 4.56.605 3.024 0 4.652-1.023 1.628-1.047 1.628-2.93 0-1.745-1.186-2.675-1.163-.93-5.14-1.8l-1.5-.35q-3.978-.837-5.745-2.56-1.768-1.745-1.768-4.77 0-3.675 2.605-5.676 2.605-2 7.397-2 2.373 0 4.466.35 2.093.35 3.86 1.047z" fill="#1c146b"/></g></svg>