<svg xmlns="http://www.w3.org/2000/svg" width="80" height="60"><g transform="matrix(.155876 0 0 .155876 .02389 1.491171)"><path d="M135.854 168.34l4.705-19.157H130.14l-4.705 19.156" fill="#646469"/><path d="M121.067 168.34l4.705-19.157H31l16.468 19.156" fill="#0091cd"/><path d="M47.468 168.34L31 149.182v6.05l13.78 13.106" fill="#0082b4"/><path d="M129.47 193.21l5.04-19.157h-10.418l-5.04 19.157" fill="#646469"/><path d="M114.682 192.872l5.04-19.156h-63.18l16.803 19.156" fill="#0091cd"/><path d="M73.345 192.872L56.54 173.716v5.714l14.452 13.78" fill="#0082b4"/><g transform="matrix(3.36072 0 0 3.36072 31 149.183)"><path d="M27.5 20.4l1.5-5.7h-3.1l-1.5 5.7" fill="#646469"/><path d="M23.1 20.4l1.4-5.7h-9.3l5 5.7" fill="#0091cd"/><linearGradient y2="20.872" x2="21.057" y1="14.793" x1="14.538" gradientUnits="userSpaceOnUse"><stop stop-color="#e6f0f5" offset="0"/><stop stop-color="#90c5db" offset=".332"/><stop stop-color="#439ec3" offset=".657"/><stop stop-color="#1386b5" offset=".886"/><stop stop-color="#007daf" offset="1"/></linearGradient><path d="M20.3 20.4l-5-5.7v1.6l4.3 4.1" fill="#0082b4"/></g><path d="M481 162.962l-1.68 6.385c-.672 3.025-2.353 4.033-5.714 4.033h-10.082c-4.37 0-6.05.336-7.057 1.345s-1.345 2.352-1.345 4.032.673 2.353 3.36 3.025l10.082 3.025c7.058 2.016 9.074 4.033 9.074 9.4s-2.016 13.78-5.04 17.812c-3.025 3.696-6.722 5.377-12.435 5.377h-24.87c-2.016 0-2.688-1.345-2.352-3.025l3.024-12.435h3.025c.672 2.69 2.69 3.697 6.72 3.697h9.747c3.696 0 5.377-.672 6.385-1.68s1.68-3.025 1.68-4.37c0-2.352-.672-3.024-5.713-4.032l-10.082-2.69c-5.377-1.344-7.73-4.368-7.73-8.737s2.017-10.42 4.37-14.45c2.688-4.705 7.057-6.722 14.45-6.722zm-224.16 13.443c0 4.033-1.68 11.1-3.024 13.78-1.01 2.016-2.353 2.688-7.394 2.688h-23.525l-1.008 4.37c-.336 1.008-.336 2.352-.336 3.36 0 2.017.672 3.697 2.352 4.705 1.344 1.008 4.033 1.344 8.402 1.344 9.4 0 11.426-1.344 14.45-5.377h3.025l-2.017 7.394c-1.344 5.377-1.68 6.385-3.697 7.393-2.688 1.345-7.73 2.017-15.795 2.017-7.393 0-12.098-.672-14.787-2.017-4.033-2.016-6.385-6.72-6.385-12.77 0-10.082 5.04-25.542 10.082-31.927s11.426-8.738 22.517-8.738c12.098-.336 17.475 4.033 17.14 13.78zm-11.762 1.68c0-4.033-2.353-5.713-7.73-5.713-7.057 0-9.746 2.69-12.1 11.427h18.82c.673-2.69 1.01-4.033 1.01-5.714zm185.847-1.68c0 4.033-1.68 11.1-3.024 13.78-1.01 2.016-2.69 2.352-7.73 2.352h-23.525l-1.008 4.37c-.336 1.008-.336 2.352-.336 3.36 0 2.016.672 3.697 2.352 4.705 1.345 1.008 4.033 1.344 8.402 1.344 9.4 0 11.426-1.344 14.45-5.377h3.025l-2.017 7.394c-1.344 5.377-1.68 6.385-3.696 7.393-2.69 1.345-7.73 2.017-15.796 2.017-7.393 0-12.098-.672-14.787-2.017-4.033-2.016-6.385-6.72-6.385-12.77 0-10.083 5.04-25.542 10.082-31.927s11.426-8.738 22.517-8.738c12.434 0 17.81 4.37 17.475 14.115zm-11.762 1.68c0-4.033-2.353-5.713-7.73-5.713-7.057 0-9.746 2.69-12.098 11.427h18.82c.672-2.69 1.008-4.033 1.008-5.714zm-210.045-25.877c.336-1.68-.672-3.025-2.353-3.025h-15.123l-.336 2.017c2.69.672 1.68 3.696 1.344 5.04-.672 3.025-4.705 18.15-4.705 18.15h-20.5l5.713-22.18c.336-1.68-.336-3.025-2.352-3.025h-15.123l-.336 2.017c2.688.672 1.68 3.696 1.344 5.04-2.017 9.075-15.123 58.813-15.123 58.813-.336 1.344.336 3.025 2.352 3.025h15.123l.336-2.017c-2.688-.672-1.68-3.696-1.344-5.04l6.385-25.542h20.5l-7.73 29.574c-.336 1.344.336 3.025 2.353 3.025h15.123l.336-2.017c-2.69-.672-1.68-3.696-1.344-5.04.672-1.345 15.46-58.813 15.46-58.813zm158.626 10.418h-7.394c-3.697 0-5.713.672-8.065 4.37l-2.69 4.37c.336-4.37-2.016-8.738-9.4-8.738h-6.72c-5.714 0-7.058 2.353-8.402 4.033l-3.025 4.033 1.344-4.705c.336-1.345-.336-3.025-2.352-3.025h-13.443l-.672 2.017c1.344.336 2.016 1.344 2.016 2.352 0 .672 0 1.008-.336 2.016l-11.762 45.706c-.336 1.345.336 3.025 2.352 3.025h13.443l.336-2.017c-1.344-.336-1.68-1.344-1.68-2.016 0-.336 0-1.008.336-2.353l7.73-28.902c1.68-7.393 3.696-8.065 7.73-8.738h2.688c3.697 0 5.04 2.353 4.37 5.042 0 .672-9.074 36.295-9.074 36.295-.336 1.345.336 3.025 2.352 3.025h13.443l.336-2.016c-1.344-.337-1.68-1.345-1.68-2.017 0-.336 0-1.008.336-2.352l7.73-28.903c2.016-7.393 3.696-8.065 7.73-8.737h2.688c4.033 0 5.04 2.352 4.37 5.04 0 .337-9.074 36.296-9.074 36.296-.336 1.345.336 3.025 2.352 3.025h13.443l.336-2.016c-1.344-.337-1.68-1.345-1.68-2.017 0-.336 0-1.008.336-2.352l9.4-37.976c.672-4.37.672-11.763-9.746-11.763zm-75.28.336c-3.36 0-3.697 0-5.377 2.353l-4.033 5.377 1.344-4.705c.336-1.345-.336-3.025-2.352-3.025h-13.443l-.336 2.017c1.344.336 1.68 1.344 1.68 2.016 0 .336 0 1.008-.336 2.352l-11.763 45.706c-.336 1.345.336 3.025 2.353 3.025h13.443l.336-2.017c-1.344-.336-1.68-1.344-1.68-2.016 0-.336 0-1.008.336-2.353l7.73-29.238c1.68-6.72 3.36-8.065 9.4-8.065h5.376c4.033 0 5.378-1.01 6.05-4.033l2.016-7.058z" fill="#3c3c41"/></g></svg>