<svg xmlns="http://www.w3.org/2000/svg" width="80" height="60"><g transform="matrix(.833905 0 0 .833905 10.028135 21.420773)"><path d="M10.403 24.916l-1.7 4.64h3.43zm-.712-1.243h1.43l3.554 9.325h-1.312l-.85-2.392H8.3l-.85 2.392H6.13zm11.31 5.834q0-1.268-.525-1.986-.518-.725-1.43-.725-.912 0-1.437.725-.518.718-.518 1.986 0 1.268.518 1.992.525.718 1.437.718.912 0 1.43-.718.525-.725.525-1.992zm-3.9-2.442q.362-.625.912-.924.556-.306 1.324-.306 1.274 0 2.067 1.012.8 1.012.8 2.66 0 1.65-.8 2.66-.793 1.012-2.067 1.012-.768 0-1.324-.3-.55-.306-.912-.93V33h-1.155v-9.72h1.155zm12.813 1.71v4.222h-1.15v-4.185q0-.993-.387-1.486-.387-.493-1.162-.493-.93 0-1.468.593-.537.593-.537 1.618V33h-1.155v-9.72h1.155v3.8q.412-.63.968-.943.562-.312 1.293-.312 1.205 0 1.824.75.618.743.618 2.192zM34.93 26.8q-.924 0-1.46.725-.537.718-.537 1.974 0 1.255.53 1.98.537.718 1.468.718.918 0 1.455-.725.537-.725.537-1.974 0-1.243-.537-1.967-.537-.73-1.455-.73zm0-.974q1.5 0 2.355.974.856.974.856 2.698 0 1.718-.856 2.698-.856.974-2.355.974-1.505 0-2.36-.974-.85-.98-.85-2.698 0-1.724.85-2.698.856-.974 2.36-.974zm5.1-2.556h1.15v9.718h-1.15zm3.428 6.958v-4.235h1.15v4.2q0 .993.387 1.493.387.493 1.162.493.93 0 1.468-.593.543-.593.543-1.618v-3.966h1.15v6.995h-1.15v-1.074q-.418.637-.974.95-.55.306-1.28.306-1.205 0-1.83-.75-.625-.75-.625-2.192zm2.892-4.403zm11.16 2.94v4.222h-1.15v-4.185q0-.993-.387-1.486-.387-.493-1.162-.493-.93 0-1.468.593-.537.593-.537 1.618V33H51.66v-6.995h1.155V27.1q.412-.63.968-.943.562-.312 1.293-.312 1.205 0 1.824.75.618.743.618 2.192zm6.9.644q0-1.25-.518-1.936-.512-.687-1.443-.687-.924 0-1.443.687-.512.687-.512 1.936 0 1.243.512 1.93.518.687 1.443.687.93 0 1.443-.687.518-.687.518-1.93zm1.15 2.7q0 1.786-.793 2.654-.793.874-2.43.874-.606 0-1.143-.094-.537-.087-1.043-.275V34.17q.506.275 1 .406.493.13 1.006.13 1.13 0 1.693-.593.562-.587.562-1.78v-.568q-.356.618-.912.924-.556.306-1.33.306-1.287 0-2.074-.98-.787-.98-.787-2.598 0-1.624.787-2.604.787-.98 2.074-.98.774 0 1.33.306.556.306.912.924v-1.062h1.15zM37.392 11.924a2.47 2.47 0 0 0-2.465 2.465c0 .394.32.714.714.714s.714-.32.714-.714a1.04 1.04 0 0 1 1.037-1.037 1.04 1.04 0 0 1 1.037 1.037 1.04 1.04 0 0 1-1.037 1.037c-.394 0-.714.32-.714.714s.32.714.714.714a2.47 2.47 0 0 0 2.465-2.465 2.47 2.47 0 0 0-2.465-2.465z"/><path d="M52.026 3.97l-10.448 6.08C40.492 9 39.016 8.355 37.392 8.355c-.592 0-1.163.087-1.704.247L25.1-10.107c-.962-1.667-3.1-2.24-4.768-1.278s-2.24 3.1-1.278 4.768l1.237-.714c-.57-.985-.23-2.25.755-2.817s2.25-.23 2.815.75L34.37 9.17c-1.8 1.046-3 2.993-3 5.22 0 3.327 2.707 6.035 6.034 6.035s6.035-2.707 6.035-6.035c0-1.184-.344-2.288-.935-3.22l10.252-5.965zM37.392 18.996c-2.54 0-4.607-2.067-4.607-4.607s2.067-4.607 4.607-4.607S42 11.85 42 14.4s-2.067 4.607-4.607 4.607zM53.364 2.02L49.4-4.83c-.197-.34-.634-.46-.975-.26s-.458.634-.26.975l3.24 5.612L42.08 6.88l-5.384-9.326 9.944-5.74c.34-.197.458-.634.26-.975s-.634-.458-.975-.26l-11.18 6.455 6.812 11.8zm-6.787-4.203c.102-.38-.124-.772-.505-.874L42.547-4l-.07-.008-.07-.001-.07.006-.07.012-.067.02-.065.026-.063.032a.69.69 0 0 0-.06.039l-.045.036a.65.65 0 0 0-.057.054l-.046.054a.66.66 0 0 0-.038.054l-.032.057-.028.06-.027.08-.926 3.457c-.102.38.124.772.505.874.062.017.124.024.185.024.315 0 .604-.2.7-.53l.48-1.792 2.395 4.15a.71.71 0 0 0 .976.261c.34-.197.458-.634.26-.975L43.9-2.16l1.792.48c.38.102.772-.124.874-.505z"/></g></svg>