<svg xmlns="http://www.w3.org/2000/svg" width="80" height="60"><path d="M43.76 25.684c.07-.001.14.027.19.078s.08.12.078.19v8.16c.001.066-.025.13-.07.176s-.1.072-.176.07h-1.688c-.11-.015-.21-.064-.3-.14l-3.128-4.268c-.082-.12-.15-.25-.204-.387v4.547c0 .068-.027.132-.076.18s-.115.07-.182.068H36.32c-.068.003-.133-.02-.182-.068s-.076-.112-.076-.18v-8.16c0-.068.027-.132.076-.18s.115-.07.182-.068h1.688c.106.013.205.062.28.14l3.128 4.267a2.29 2.29 0 0 1 .215.387v-4.547c-.001-.066.025-.13.07-.176s.1-.072.176-.07c0-.02 1.763-.02 1.88-.02zm13.33 11.814c-4.106 0-7.45-3.354-7.45-7.47 0-4.128 3.343-7.482 7.45-7.482 4.096 0 7.44 3.354 7.44 7.482 0 4.117-3.343 7.47-7.44 7.47zm-17.038 0c-4.106 0-7.45-3.354-7.45-7.47 0-4.128 3.343-7.482 7.45-7.482 4.096 0 7.44 3.354 7.44 7.482 0 4.117-3.343 7.47-7.44 7.47zm-17.038 0c-4.106 0-7.45-3.354-7.45-7.47 0-4.128 3.343-7.482 7.45-7.482 4.096 0 7.44 3.354 7.44 7.482-.01 4.117-3.354 7.47-7.44 7.47zm34.075-17.124c-3.698 0-6.912 2.118-8.535 5.203-1.642-3.194-4.932-5.203-8.524-5.203s-6.882 2.008-8.524 5.203c-1.65-3.193-4.94-5.2-8.535-5.203-5.256 0-9.567 4.332-9.567 9.653 0 5.3 4.3 9.642 9.6 9.642 3.687 0 6.912-2.118 8.524-5.203a9.61 9.61 0 0 0 8.524 5.203c3.698 0 6.912-2.118 8.535-5.203 1.644 3.193 4.933 5.2 8.524 5.203 5.3 0 9.6-4.332 9.6-9.642-.032-5.32-4.353-9.653-9.642-9.653zM19.4 25.845c-.066-.001-.13.025-.176.07s-.072.1-.07.176v1.623c-.001.066.025.13.07.176s.1.072.176.07h1.956a2.46 2.46 0 0 0 .376-.032v6.396c-.001.066.025.13.07.176s.1.072.176.07h2c.066.001.13-.025.176-.07s.072-.1.07-.176V27.93c.157.02.315.03.473.032h1.87c.066.001.13-.025.176-.07s.072-.1.07-.176v-1.623c.001-.066-.025-.13-.07-.176s-.1-.072-.176-.07zm41.288 0c.066-.001.13.025.176.07s.072.1.07.176v1.623c.001.066-.025.13-.07.176s-.1.072-.176.07h-1.86a4.32 4.32 0 0 1-.484-.032v6.396c.001.066-.025.13-.07.176s-.1.072-.176.07h-2c-.066.001-.13-.025-.176-.07s-.072-.1-.07-.176V27.93a2.46 2.46 0 0 1-.376.032H53.51c-.066.001-.13-.025-.176-.07s-.072-.1-.07-.176v-1.623c-.001-.066.025-.13.07-.176s.1-.072.176-.07z" fill="#f60"/></svg>