<svg xmlns="http://www.w3.org/2000/svg" width="80" height="60"><g transform="matrix(.167931 0 0 .167931 -58.067079 -15.084598)"><path d="M494.667 364.507h21.958v3.954h-17.26v10.28h16.54v3.954h-16.54v12.584h17.678v3.954h-22.377zm51.617 8.676l-9.42 12.677 9.9 13.375h-5.048L534.14 389l-7.583 10.235h-5.048l10.12-13.63-9.258-12.42h5.048l6.9 9.28 6.9-9.28zm10.676 22.145v13.817h-4.303v-35.962h4.303v3.954q1.35-2.326 3.396-3.443 2.07-1.14 4.93-1.14 4.745 0 7.7 3.768 2.977 3.768 2.977 9.9 0 6.14-2.977 9.9-2.954 3.768-7.7 3.768-2.86 0-4.93-1.117-2.047-1.14-3.396-3.466zm14.56-9.095q0-4.722-1.954-7.397-1.93-2.698-5.327-2.698-3.396 0-5.35 2.698-1.93 2.675-1.93 7.397 0 4.722 1.93 7.42 1.954 2.675 5.35 2.675 3.396 0 5.327-2.675 1.954-2.698 1.954-7.42zm26.636-9.05q-.72-.42-1.582-.605-.837-.2-1.86-.2-3.63 0-5.583 2.373-1.93 2.35-1.93 6.77v13.724h-4.303v-26.052h4.303v4.047q1.35-2.373 3.512-3.512 2.163-1.163 5.257-1.163.442 0 .977.07.535.046 1.186.163zm25.796 7.956v2.094h-19.68q.28 4.42 2.652 6.746 2.396 2.303 6.653 2.303 2.466 0 4.77-.605 2.326-.605 4.606-1.814v4.047q-2.303.977-4.722 1.5-2.42.512-4.908.512-6.234 0-9.886-3.63-3.63-3.63-3.63-9.816 0-6.397 3.443-10.142 3.466-3.768 9.328-3.768 5.257 0 8.304 3.396 3.07 3.373 3.07 9.188zm-4.28-1.256q-.046-3.512-1.977-5.606-1.907-2.094-5.07-2.094-3.582 0-5.745 2.024-2.14 2.024-2.466 5.7zm27.914-9.934v4.047q-1.814-.93-3.768-1.396-1.954-.465-4.047-.465-3.187 0-4.792.977-1.582.977-1.582 2.93 0 1.5 1.14 2.35 1.14.837 4.582 1.605l1.465.326q4.56.977 6.467 2.768 1.93 1.768 1.93 4.955 0 3.63-2.884 5.745-2.86 2.117-7.886 2.117-2.093 0-4.373-.42-2.256-.395-4.77-1.2v-4.42q2.373 1.233 4.675 1.86 2.303.605 4.56.605 3.024 0 4.652-1.023 1.628-1.047 1.628-2.93 0-1.745-1.186-2.675-1.163-.93-5.14-1.8l-1.5-.35q-3.978-.837-5.745-2.56-1.768-1.745-1.768-4.77 0-3.675 2.605-5.676 2.605-2 7.397-2 2.373 0 4.466.35 2.094.35 3.86 1.047zm24.844 0v4.047q-1.814-.93-3.768-1.396-1.954-.465-4.047-.465-3.187 0-4.792.977-1.582.977-1.582 2.93 0 1.5 1.14 2.35 1.14.837 4.582 1.605l1.465.326q4.56.977 6.467 2.768 1.93 1.768 1.93 4.955 0 3.63-2.884 5.745-2.86 2.117-7.886 2.117-2.093 0-4.373-.42-2.256-.395-4.77-1.2v-4.42q2.373 1.233 4.675 1.86 2.303.605 4.56.605 3.024 0 4.652-1.023 1.628-1.047 1.628-2.93 0-1.745-1.186-2.675-1.163-.93-5.14-1.8l-1.5-.35q-3.978-.837-5.745-2.56-1.768-1.745-1.768-4.77 0-3.675 2.605-5.676 2.605-2 7.397-2 2.373 0 4.466.35 2.093.35 3.86 1.047z" fill="#fab80a"/><path d="M503.626 209.54l.734 83.26 18.706 23.107 56.12 29.71 68.956-33.744 14.305-34.11-1.467-110.403-52.084-1.467-54.284 8.803-49.516 28.61z" fill="#301506" fill-rule="evenodd"/><path d="M583.975 149.373c-32.688 0-61.202 6.33-84.753 18.81v99.776c0 20.995 7.888 38.55 22.808 50.78 13.853 11.364 56.696 30.09 61.946 32.365 4.98-2.167 48.33-21.183 61.963-32.365 14.912-12.224 22.802-29.785 22.802-50.78V168.18c-23.554-12.482-52.068-18.8-84.77-18.8zm48.402 19.32c9.748.127 19.32.73 28.572 1.59v97.675c0 18.77-6.81 33.932-19.952 44.757-11.74 9.668-47.142 25.53-57.02 29.884-10.01-4.413-45.5-20.475-57.03-29.88-13.064-10.64-19.94-26.16-19.94-44.757v-57.073c37.542-34.43 83.13-42.745 125.368-42.193zm-46.193 45.48c-8.043 0-14.532 1.798-19.875 5.246v96.1h14.75v-31.047c1.472.434 3.61.84 6.636.84 16.363 0 25.768-14.75 25.768-36.288 0-21.495-9.684-34.852-27.28-34.852zm50.404 0c-9.7.28-19.847 7.31-19.785 19.222.025 7.844 2.2 13.71 14.357 20.844 6.488 3.808 9.102 6.318 9.214 10.946.124 5.144-3.43 8.246-8.84 8.225-4.706-.037-10.332-2.65-14.1-6.003v13.575c4.62 2.754 10.382 4.575 16.205 4.575 14.573 0 21.08-10.294 21.36-19.727.277-8.597-2.1-15.103-14.422-22.343-5.5-3.226-9.843-5.345-9.698-10.713.145-5.24 4.495-7.08 8.67-7.043 5.153.045 10.137 2.9 13.213 6.054v-12.82c-2.593-1.997-8.082-5.042-16.18-4.794zm-122.05 1.493v46.355c0 15.627 7.392 23.54 21.98 23.54 9.027 0 16.588-2.09 22.22-5.92v-63.974h-14.72v55.58c-1.604 1.1-3.984 1.803-6.978 1.803-6.757 0-7.767-6.196-7.767-10.377v-47.006h-14.738zm71.745 10.383c8.556 0 12.102 6.83 12.102 23.35 0 16.12-4.056 23.907-12.54 23.907-1.997 0-3.733-.495-4.788-.892v-45.3c1.195-.595 3.226-1.066 5.227-1.066z" fill="#fab80a"/></g></svg>