<svg xmlns="http://www.w3.org/2000/svg" xmlns:xlink="http://www.w3.org/1999/xlink" width="80" height="60"><g transform="matrix(.833905 0 0 .833905 10.028135 21.420773)"><use xlink:href="#B"/><use xlink:href="#B" x="7.394"/><use xlink:href="#B" x="37.894"/><path d="M64.84 3.425l-1.163-1.163-2.342-7.027c.35-.1.603-.438.603-.824 0-.478-.387-.865-.865-.865h-8.378V-10.2a1.79 1.79 0 0 0-1.789-1.789H8.393a1.79 1.79 0 0 0-1.789 1.789v20.333a1.79 1.79 0 0 0 1.789 1.789h.984v1.907a1.79 1.79 0 0 0 1.789 1.789h2a4.57 4.57 0 0 0 4.478 3.697c1.52 0 2.868-.748 3.697-1.894a4.56 4.56 0 0 0 3.697 1.894 4.57 4.57 0 0 0 4.478-3.697H51.05a4.57 4.57 0 0 0 4.478 3.697 4.57 4.57 0 0 0 4.562-4.562v-.06h3.758a1.79 1.79 0 0 0 1.789-1.789v-7.55a2.69 2.69 0 0 0-.795-1.918zM13.157 13.88h-2a.06.06 0 0 1-.06-.06v-1.907h2.957c-.447.563-.765 1.234-.906 1.967zm4.478 3.697c-1.562 0-2.832-1.27-2.832-2.832 0-1.556 1.26-2.822 2.814-2.832h.036c1.553.01 2.814 1.276 2.814 2.832s-1.27 2.832-2.832 2.832zm7.394 0c-1.562 0-2.832-1.27-2.832-2.832 0-1.556 1.26-2.822 2.814-2.832h.036c1.553.01 2.814 1.276 2.814 2.832s-1.27 2.832-2.832 2.832zm26.02-3.697H29.507c-.14-.733-.46-1.404-.906-1.967h16.76c.478 0 .865-.387.865-.865s-.387-.865-.865-.865H8.393a.06.06 0 0 1-.06-.06V-10.2a.06.06 0 0 1 .06-.06h42.514a.06.06 0 0 1 .06.06v20.393H49.06c-.478 0-.865.387-.865.865s.387.865.865.865h2.897c-.447.563-.765 1.234-.906 1.967zM62.03 2.8h-5.578a.06.06 0 0 1-.06-.06v-3.756h4.365zm-6.502 14.788c-1.562 0-2.832-1.27-2.832-2.832 0-1.556 1.26-2.822 2.814-2.832h.018c1.565.003 2.832 1.272 2.832 2.832s-1.27 2.832-2.832 2.832zM63.906 7.4h-.984c-.478 0-.865.387-.865.865s.387.865.865.865h.984v3.756a.06.06 0 0 1-.06.06h-4.122c-.697-1.63-2.315-2.773-4.196-2.773h-2.832V-4.664a.06.06 0 0 1 .06-.06h6.77l.656 1.967h-4.654c-.478 0-.865.387-.865.865v4.62a1.79 1.79 0 0 0 1.789 1.789h7.036l.13.13c.186.186.288.433.288.696zm-52.74.806h36.97c.478 0 .865-.387.865-.865s-.387-.865-.865-.865h-36.97c-.478 0-.865.387-.865.865s.387.865.865.865zm1.83 15.764v1.23q-.718-.344-1.355-.512-.637-.17-1.23-.17-1.03 0-1.593.4-.556.4-.556 1.137 0 .618.368.937.375.312 1.412.506l.762.156q1.412.27 2.08.95.675.675.675 1.8 0 1.355-.912 2.055-.906.7-2.66.7-.662 0-1.412-.15-.743-.15-1.543-.443v-1.3q.768.43 1.505.65.737.22 1.45.22 1.08 0 1.668-.425.587-.425.587-1.212 0-.687-.425-1.074-.418-.387-1.38-.58l-.768-.15q-1.412-.28-2.042-.88-.63-.6-.63-1.668 0-1.237.868-1.95.874-.712 2.405-.712.656 0 1.337.12.68.12 1.393.356zm3.592 7.97v3.7h-1.155v-9.656h1.155v1.062q.362-.625.912-.924.556-.306 1.324-.306 1.274 0 2.067 1.012.8 1.012.8 2.66 0 1.65-.8 2.66-.793 1.012-2.067 1.012-.768 0-1.324-.3-.55-.306-.912-.93zm3.9-2.442q0-1.268-.525-1.986-.518-.725-1.43-.725-.912 0-1.437.725-.518.718-.518 1.986 0 1.268.518 1.992.525.718 1.437.718.912 0 1.43-.718.525-.725.525-1.992zm9.092-.295v.562h-5.284q.075 1.187.712 1.8.643.618 1.786.618.662 0 1.28-.162.625-.162 1.237-.487v1.087q-.618.262-1.268.4-.65.137-1.318.137-1.674 0-2.654-.974-.974-.974-.974-2.636 0-1.718.924-2.723.93-1.012 2.505-1.012 1.412 0 2.23.912.824.906.824 2.467zm-1.15-.337q-.012-.943-.53-1.505-.512-.562-1.362-.562-.962 0-1.543.543-.575.543-.662 1.53zm7.638-1.81V23.28h1.15v9.718h-1.15v-1.05q-.362.625-.918.93-.55.3-1.324.3-1.268 0-2.067-1.012-.793-1.012-.793-2.66 0-1.65.793-2.66.8-1.012 2.067-1.012.774 0 1.324.306.556.3.918.924zm-3.916 2.442q0 1.268.518 1.992.525.718 1.437.718.912 0 1.437-.718.525-.725.525-1.992 0-1.268-.525-1.986-.525-.725-1.437-.725-.912 0-1.437.725-.518.718-.518 1.986zm7.432-3.504h1.15v6.995h-1.15zm0-2.723h1.15v1.455h-1.15zm4.686.737v1.986h2.367v.893H44.27v3.797q0 .856.23 1.1.237.244.956.244h1.18V33h-1.18q-1.33 0-1.836-.493-.506-.5-.506-1.8V26.9h-.843v-.893h.843V24.02zm3.883 1.986h1.15v6.995h-1.15zm0-2.723h1.15v1.455h-1.15zm6.26 3.53q-.924 0-1.46.725-.537.718-.537 1.974 0 1.255.53 1.98.537.718 1.468.718.918 0 1.455-.725.537-.725.537-1.974 0-1.243-.537-1.967-.537-.73-1.455-.73zm0-.974q1.5 0 2.355.974.856.974.856 2.698 0 1.718-.856 2.698-.856.974-2.355.974-1.505 0-2.36-.974-.85-.98-.85-2.698 0-1.724.85-2.698.856-.974 2.36-.974zm10.923 2.94v4.222h-1.15v-4.185q0-.993-.387-1.486-.387-.493-1.162-.493-.93 0-1.468.593-.537.593-.537 1.618V33h-1.155v-6.995h1.155V27.1q.412-.63.968-.943.562-.312 1.293-.312 1.205 0 1.824.75.618.743.618 2.192z"/></g><defs ><path id="B" d="M17.644 13.88h-.01a.86.86 0 0 0-.86.865.87.87 0 0 0 .869.865c.478 0 .865-.387.865-.865s-.387-.865-.865-.865z"/></defs></svg>