<svg xmlns="http://www.w3.org/2000/svg" xmlns:xlink="http://www.w3.org/1999/xlink" width="80" height="60"><g transform="matrix(.833905 0 0 .833905 10.028135 21.420773)"><use xlink:href="#B"/><use xlink:href="#B" x="7.394"/><use xlink:href="#B" x="37.894"/><path d="M64.84 3.425l-1.163-1.163-2.342-7.027c.35-.1.603-.438.603-.824 0-.478-.387-.865-.865-.865h-8.378V-10.2a1.79 1.79 0 0 0-1.789-1.789H8.393a1.79 1.79 0 0 0-1.789 1.789v20.333a1.79 1.79 0 0 0 1.789 1.789h.984v1.907a1.79 1.79 0 0 0 1.789 1.789h2a4.57 4.57 0 0 0 4.478 3.697c1.52 0 2.868-.748 3.697-1.894a4.56 4.56 0 0 0 3.697 1.894 4.57 4.57 0 0 0 4.478-3.697H51.05a4.57 4.57 0 0 0 4.478 3.697 4.57 4.57 0 0 0 4.562-4.562v-.06h3.758a1.79 1.79 0 0 0 1.789-1.789v-7.55a2.69 2.69 0 0 0-.795-1.918zM13.157 13.88h-2a.06.06 0 0 1-.06-.06v-1.907h2.957c-.447.563-.765 1.234-.906 1.967zm4.478 3.697c-1.562 0-2.832-1.27-2.832-2.832 0-1.556 1.26-2.822 2.814-2.832h.036c1.553.01 2.814 1.276 2.814 2.832s-1.27 2.832-2.832 2.832zm7.394 0c-1.562 0-2.832-1.27-2.832-2.832 0-1.556 1.26-2.822 2.814-2.832h.036c1.553.01 2.814 1.276 2.814 2.832s-1.27 2.832-2.832 2.832zm26.02-3.697H29.507c-.14-.733-.46-1.404-.906-1.967h16.76c.478 0 .865-.387.865-.865s-.387-.865-.865-.865H8.393a.06.06 0 0 1-.06-.06V-10.2a.06.06 0 0 1 .06-.06h42.514a.06.06 0 0 1 .06.06v20.393H49.06c-.478 0-.865.387-.865.865s.387.865.865.865h2.897c-.447.563-.765 1.234-.906 1.967zM62.03 2.8h-5.578a.06.06 0 0 1-.06-.06v-3.756h4.365zm-6.502 14.788c-1.562 0-2.832-1.27-2.832-2.832 0-1.556 1.26-2.822 2.814-2.832h.018c1.565.003 2.832 1.272 2.832 2.832s-1.27 2.832-2.832 2.832zM63.906 7.4h-.984c-.478 0-.865.387-.865.865s.387.865.865.865h.984v3.756a.06.06 0 0 1-.06.06h-4.122c-.697-1.63-2.315-2.773-4.196-2.773h-2.832V-4.664a.06.06 0 0 1 .06-.06h6.77l.656 1.967h-4.654c-.478 0-.865.387-.865.865v4.62a1.79 1.79 0 0 0 1.789 1.789h7.036l.13.13c.186.186.288.433.288.696zm-52.74.806h36.97c.478 0 .865-.387.865-.865s-.387-.865-.865-.865h-36.97c-.478 0-.865.387-.865.865s.387.865.865.865zm9.62 18.056v1.074q-.487-.27-.98-.4-.487-.137-.987-.137-1.118 0-1.736.712-.618.706-.618 1.986 0 1.28.618 1.992.618.706 1.736.706.5 0 .987-.13.493-.137.98-.406v1.062q-.48.225-1 .337-.512.112-1.093.112-1.58 0-2.5-.993-.93-.993-.93-2.68 0-1.7.937-2.692.943-.98 2.58-.98.53 0 1.037.112.506.106.98.325zm5.2 3.2q-1.393 0-1.93.32-.537.32-.537 1.087 0 .612.4.974.406.356 1.1.356.956 0 1.53-.675.58-.68.58-1.805v-.256zm2.292-.475v4h-1.15v-1.062q-.393.637-.98.943-.587.3-1.437.3-1.074 0-1.7-.6-.63-.606-.63-1.618 0-1.18.787-1.78.793-.6 2.36-.6h1.6v-.112q0-.793-.525-1.224-.518-.437-1.46-.437-.6 0-1.168.144-.568.144-1.093.43V26.32q.63-.244 1.224-.362.593-.125 1.155-.125 1.518 0 2.267.787.75.787.75 2.386z"/><use xlink:href="#C"/><path d="M39.74 27.077q-.194-.112-.425-.162-.225-.056-.5-.056-.974 0-1.5.637-.518.63-.518 1.818V33h-1.155v-6.995H36.8V27.1q.362-.637.943-.943.58-.312 1.412-.312.12 0 .262.02.144.012.32.044zm1.218-1.074h1.15v6.995h-1.15zm0-2.723h1.15v1.455h-1.15zm9.532 5.933v.562h-5.284q.075 1.187.712 1.8.643.618 1.786.618.662 0 1.28-.162.625-.162 1.237-.487v1.087q-.618.262-1.268.4-.65.137-1.318.137-1.674 0-2.654-.974-.974-.974-.974-2.636 0-1.718.924-2.723.93-1.012 2.505-1.012 1.412 0 2.23.912.824.906.824 2.467zm-1.15-.337q-.012-.943-.53-1.505-.512-.562-1.362-.562-.962 0-1.543.543-.575.543-.662 1.53z"/><use xlink:href="#C" x="21.736"/></g><defs ><path id="B" d="M17.644 13.88h-.01a.86.86 0 0 0-.86.865.87.87 0 0 0 .869.865c.478 0 .865-.387.865-.865s-.387-.865-.865-.865z"/><path id="C" d="M34.694 27.077q-.194-.112-.425-.162-.225-.056-.5-.056-.974 0-1.5.637-.518.63-.518 1.818v3.685h-1.155v-6.995h1.155V27.1q.362-.637.943-.943.58-.312 1.412-.312.12 0 .262.02.144.012.32.044z"/></defs></svg>