<svg xmlns="http://www.w3.org/2000/svg" width="80" height="60"><path d="M14.866 23.932l-2.477 3.366H25.9c.683 0 .674.257.34.712L25 29.733c-.175.237-.492.667.557.667h5.522l1.636-2.224c1.015-1.377.1-4.243-3.54-4.243zM11.386 34.9l4.977-6.763h6.175c.683 0 .674.26.34.712l-1.26 1.716c-.175.237-.492.667.557.667h8.27c-.686.943-2.92 3.667-6.925 3.667zm28.5-3.67l-2.7 3.67h-7.12l2.7-3.67zM50.8 30.4h-17.4l4.76-6.467h7.115l-2.728 3.708h3.175l2.73-3.708h7.115zm-.6.83l-2.7 3.67h-7.115l2.7-3.67zM1.23 32.677h10.485l-.572.778H1.23zm0-1.447h11.55l-.574.778H1.23zm0 2.894h9.42l-.57.775H1.23zm77.543-.67H68.325l.574-.778h9.874zm0 1.444h-11.51l.57-.775h10.94zm-8.8-3.67h8.8v.78H69.4zm-4.56-7.297l-4.76 6.467h-7.54l4.764-6.467zm-12.9 7.297l-.773 1.052c-.892 1.2-.104 2.615 2.813 2.615H65.96l2.7-3.667z"/></svg>