<svg xmlns="http://www.w3.org/2000/svg" xmlns:xlink="http://www.w3.org/1999/xlink" width="80" height="60"><g transform="matrix(1.702635 0 0 1.702635 0 4.49967)"><path d="M28.985 19.546c-.654.183-1.506.26-2.237.26-1.902 0-3.15-.99-3.15-2.8 0-1.72 1.172-2.83 2.876-2.83.38 0 .79.046 1.035.167v-2.496h1.476zM27.51 15.62c-.228-.106-.548-.167-.913-.167-.898 0-1.49.548-1.49 1.506 0 1.02.64 1.598 1.69 1.598.183 0 .472 0 .715-.06zm13.603 3.926c-.654.183-1.506.26-2.252.26-1.887 0-3.15-.99-3.15-2.8 0-1.72 1.172-2.83 2.876-2.83.396 0 .79.046 1.035.167v-2.496h1.49zm-1.49-3.926c-.228-.106-.532-.167-.898-.167-.913 0-1.506.548-1.506 1.506 0 1.02.654 1.598 1.704 1.598.183 0 .456 0 .7-.06zm-8.308 0c.243-.106.594-.137.883-.137.913 0 1.537.517 1.537 1.446 0 1.096-.7 1.598-1.628 1.613v1.263h.076c1.917 0 3.058-1.05 3.058-2.922 0-1.704-1.217-2.708-3.013-2.708-.913 0-1.81.213-2.404.456v7.228h1.49zm0 0" fill="#0d0d0d" fill-rule="evenodd"/><path d="M5.872 12.014l-.02 6.77 6.5 3.8 6.483-3.724.026-6.85-4.058 2.33-.595-.34-.005-.648 4.323-2.484L12.37 7.57 6.2 10.858l6.733 3.843.025 5.78-.588.327-.588-.323.01-5.1zM14.62 22.76h2.173v.4h-1.708v1.017h1.637v.4h-1.637v1.245h1.75v.4H14.62zm5.108.858l-.932 1.255.98 1.324h-.5l-.75-1.013-.75 1.013h-.5l1-1.35-.916-1.23h.5l.684.918.684-.918zm1.056 2.192v1.367h-.426v-3.56h.426v.4q.134-.23.336-.34.205-.113.488-.113.47 0 .762.373.295.373.295.98 0 .608-.295.98-.292.373-.762.373-.283 0-.488-.1-.203-.113-.336-.343zm1.44-.9q0-.467-.193-.732-.2-.267-.527-.267-.336 0-.53.267-.2.265-.2.732 0 .467.2.734.193.265.53.265.336 0 .527-.265.193-.267.193-.734zm2.636-.896q-.07-.04-.157-.06-.083-.02-.184-.02-.36 0-.552.235-.2.232-.2.67v1.358h-.426V23.62h.426v.4q.134-.235.348-.348.214-.115.52-.115.044 0 .097.007.053.005.117.016zm2.554.786v.207h-1.947q.028.437.262.668.237.228.658.228.244 0 .472-.06.23-.06.456-.18v.4q-.228.097-.467.147-.24.05-.486.05-.617 0-.978-.36-.36-.36-.36-.97 0-.633.34-1.004.343-.373.923-.373.52 0 .822.336.304.334.304.9zM27 24.676q-.005-.348-.196-.555-.2-.207-.502-.207-.354 0-.57.2-.212.2-.244.564z"/><use xlink:href="#B"/><use xlink:href="#B" x="2.458"/></g><defs ><path id="B" d="M29.752 23.694v.4q-.18-.092-.373-.138-.193-.046-.4-.046-.315 0-.474.097-.157.097-.157.3 0 .147.113.232.113.083.453.16l.145.032q.45.097.64.274.19.175.19.5 0 .36-.285.57-.283.21-.78.21-.207 0-.433-.04-.223-.04-.472-.12v-.437q.235.122.463.184.228.06.45.06.3 0 .46-.1.16-.104.16-.3 0-.173-.117-.265-.115-.092-.51-.177l-.147-.035q-.394-.083-.57-.253-.175-.173-.175-.472 0-.364.258-.562.258-.198.732-.198.235 0 .442.035.207.035.382.104z"/></defs></svg>