<svg xmlns="http://www.w3.org/2000/svg" width="80" height="60"><g transform="matrix(.833905 0 0 .833905 10.028135 21.220773)"><path d="M53.607 7.772h6.343l2.978 3.282 2.867-3.282h6.122L65.934 14.5 72 21.283h-6.37l-2.95-3.308-2.923 3.308h-6.15l6.012-6.755z"/><path d="M46.798 7.772h6.81v4.565h-6.81v4.19h6.81v4.757H41.794V0h11.813v4.744h-6.81z"/><path d="M36.8 0v8.7h-.055c-1.103-1.258-2.48-1.7-4.08-1.7-3.276 0-5.744 2.228-6.6 5.172-1-3.244-3.537-5.233-7.315-5.233-3.068 0-5.5 1.377-6.755 3.62v-2.8H5.653V4.744h6.92V0H0v21.283h5.653v-8.946h5.635a8.48 8.48 0 0 0-.258 2.104c0 4.44 3.392 7.555 7.72 7.555 3.64 0 6.04-1.7 7.307-4.824h-4.845c-.655.937-1.152 1.214-2.462 1.214-1.52 0-2.83-1.325-2.83-2.896h9.865c.428 3.526 3.175 6.567 6.944 6.567 1.626 0 3.115-.8 4.025-2.15h.055v1.378h4.983V0zM16.08 12.4c.314-1.352 1.363-2.235 2.672-2.235 1.44 0 2.436.856 2.698 2.235.1 0-5.37 0-5.37 0zm17.707 5.643c-1.837 0-2.98-1.712-2.98-3.5 0-1.9.993-3.747 2.98-3.747 2.06 0 2.88 1.837 2.88 3.747 0 1.8-.87 3.5-2.88 3.5zm8.008 13.882v-7.627h4.214v.57H42.5v2.812h3.37v.57H42.5v3.106h3.676v.57h-4.37zm4.875 0l2.055-2.74-1.95-2.6h.8l1.6 2.117 1.56-2.117h.8l-1.98 2.6 2.064 2.74h-.8l-1.707-2.266-1.622 2.266zm6.256 2h-.643v-5.74l-.032-1.6h.633l.02.8c.4-.633.926-.927 1.717-.927 1.643 0 2.348 1.358 2.348 2.8s-.705 2.792-2.348 2.792c-.738 0-1.317-.284-1.696-.896zm3.36-4.666c0-1.137-.475-2.254-1.738-2.254-1.2 0-1.622.98-1.622 2.254s.432 2.254 1.622 2.254c1.264 0 1.738-1.116 1.738-2.254zm3.988-2.17c-1.064 0-1.434.896-1.434 1.822v3.014h-.643v-3.762l-.03-1.568h.634l.04.77c.316-.6.844-.895 1.55-.895a2.66 2.66 0 0 1 .295.021v.643c-.148-.023-.264-.044-.4-.044zm1.198 2.285c0 1.2.568 2.2 1.737 2.2.905 0 1.327-.6 1.485-1.2h.6c-.285 1.116-.97 1.686-2.18 1.686-1.622 0-2.34-1.2-2.34-2.696 0-1.527.748-2.886 2.423-2.886 1.696 0 2.15 1.484 2.15 2.906zm.02-.484h3.18c0-1.043-.494-1.938-1.506-1.938-.916-.001-1.55.694-1.675 1.938zm6.374 3.16c-1.095 0-1.916-.517-1.916-1.686h.643c0 .8.526 1.2 1.306 1.2.727 0 1.295-.348 1.295-1.062 0-.643-.663-.812-1.358-1.012-.842-.242-1.76-.506-1.76-1.538 0-1.147.958-1.484 1.854-1.484 1.03 0 1.8.4 1.832 1.505h-.643c-.03-.63-.484-1-1.17-1-.537 0-1.2.2-1.2.905 0 .633.653.812 1.348 1 .844.23 1.77.484 1.77 1.517-.001 1.2-.927 1.643-2.013 1.643zm4.456 0c-1.096 0-1.917-.517-1.917-1.686h.643c0 .8.526 1.2 1.307 1.2.727 0 1.295-.348 1.295-1.062 0-.643-.664-.812-1.36-1.012-.842-.242-1.758-.506-1.758-1.538 0-1.147.958-1.484 1.854-1.484 1.03 0 1.8.4 1.832 1.505h-.643c-.03-.63-.484-1-1.17-1-.537 0-1.2.2-1.2.905 0 .633.653.812 1.35 1 .843.23 1.77.484 1.77 1.517-.002 1.2-.93 1.643-2.014 1.643z"/></g></svg>