<svg xmlns="http://www.w3.org/2000/svg" width="80" height="60" fill-rule="evenodd"><path d="M56.997 33.863l2.06-10.55H55.48l-2.727 14.083h6.524l.673-3.534zm10.553-7.42c.58 0 1.428.13 1.92.3l.626-3.265-2.457-.176c-3.9 0-5.722 2.323-5.722 4.915 0 3.4 3.487 3.353 3.487 4.827 0 .72-.538 1.118-1.6 1.118-.807 0-1.83-.176-2.458-.445l-.673 3.487c.714.18 1.744.27 2.773.27 3.487 0 5.898-2.328 5.898-5.143 0-3.306-3.487-3.353-3.487-4.827 0-.626.45-1.07 1.702-1.07m-17.614-3.12c-5.365 0-8.807 4.02-8.807 8.94 0 3.037 1.6 5.184 5.723 5.184 1.6 0 3.306-.3 4.693-.895l1.3-6.793h-3.58l-.802 4.154c-.316.093-.673.093-.983.093-1.8 0-2.416-.983-2.416-2.323 0-2.416 1.474-4.967 4.563-4.967.848 0 1.785.18 2.633.404.093.047.18.088.27.088.27.135.538.228.72.316l.75-3.668c-1.247-.3-2.727-.533-4.067-.533m-26.99.026l-.964 4.677h6.65c-5.5 8.164-16.445 6.778-19.337 3.394-2.5-2.918-.34-7.905 7.04-11-7.306 2.225-11.406 8.06-8.997 11.993 2.73 4.455 11.246 6.312 18.813 4.15 5.057-1.775 7.216-4.268 8.004-5.608l-1.24 6.472h4.97L40.58 23.34z"/></svg>