<svg xmlns="http://www.w3.org/2000/svg" width="80" height="60"><path d="M63.512 40.33c-2.978 0-4.617-1.834-4.617-4.72v-7.447h-2.808V25.4h2.808v-2.92l3.805-1.218V25.4h3.366v2.773H62.7v6.82c0 1.244.333 2.397 1.784 2.397.678 0 1.336-.14 1.732-.382l.106 2.99c-.8.234-1.668.342-2.808.342zm-14.838 0c-1.45 0-2.922-.263-4.307-.625l.218-3.112c1.196.603 2.44.955 3.74.955.976 0 2.5-.352 2.5-1.782 0-2.864-6.605-.904-6.605-6.18 0-3.153 2.75-4.542 5.736-4.542 1.782 0 2.94.29 4.13.546l-.25 2.865c-1.166-.404-2.015-.63-3.4-.63-1.018 0-2.244.377-2.244 1.635 0 2.313 6.607.826 6.607 6.104 0 3.425-3.026 4.768-6.124 4.768zm-13.694 0c-4.823 0-7.632-3.333-7.632-7.54 0-4.825 3.318-7.746 7.632-7.746 4.343 0 7.66 2.92 7.66 7.746 0 4.21-2.808 7.54-7.66 7.54zm-15.233-7.85h-1.68v7.51H14.1V20.2h5.022c4.31 0 8.253 1.244 8.253 5.977 0 4.615-3.378 6.302-7.628 6.302zm-.29-9.162h-1.388v6.036h1.388c1.995 0 3.776-.636 3.776-2.95 0-2.286-1.727-3.086-3.776-3.086zm15.525 4.676c-2.47 0-3.663 2.157-3.663 4.35 0 2.405.772 5.036 3.663 5.036 2.914 0 3.684-2.602 3.684-5.036 0-2.24-1.187-4.35-3.684-4.35z" fill-rule="evenodd"/></svg>