<svg xmlns="http://www.w3.org/2000/svg" width="80" height="60"><path d="M40 13c-5.5 0-10.278 1.063-14.233 3.16v16.755c0 3.526 1.325 6.474 3.83 8.528 2.326 1.908 9.52 5.053 10.403 5.435.836-.364 8.116-3.557 10.405-5.435 2.504-2.053 3.83-5.002 3.83-8.528V16.16C50.28 14.063 45.492 13 40 13zm8.128 3.244c1.637.02 3.244.123 4.798.267v16.403c0 3.152-1.144 5.698-3.35 7.516-1.972 1.624-7.917 4.287-9.575 5.018-1.68-.74-7.64-3.438-9.577-5.018-2.194-1.787-3.35-4.393-3.35-7.516V23.33c6.304-5.782 13.96-7.178 21.053-7.086zm-7.757 7.638c-1.35 0-2.44.302-3.338.88V40.9H39.5v-5.214a3.91 3.91 0 0 0 1.114.141c2.748 0 4.327-2.477 4.327-6.094 0-3.6-1.626-5.853-4.58-5.853zm8.464 0c-1.63.047-3.333 1.227-3.322 3.228.004 1.317.37 2.302 2.4 3.5 1.1.64 1.53 1.06 1.547 1.838.02.864-.576 1.385-1.484 1.38-.8-.006-1.735-.445-2.368-1.008v2.28c.776.462 1.744.768 2.72.768 2.447 0 3.54-1.73 3.587-3.313.047-1.444-.352-2.536-2.422-3.752-.924-.542-1.653-.898-1.63-1.8.024-.88.755-1.2 1.456-1.183.865.008 1.702.487 2.22 1.017v-2.153c-.435-.335-1.357-.847-2.717-.805zm-20.496.25v7.784c0 2.624 1.24 3.953 3.7 3.953 1.516 0 2.786-.35 3.732-.994V24.133H33.3v9.334c-.27.185-.67.303-1.172.303-1.135 0-1.304-1.04-1.304-1.743v-7.894H28.34zm12.048 1.744c1.437 0 2.032 1.147 2.032 3.92 0 2.707-.68 4.015-2.106 4.015a2.33 2.33 0 0 1-.804-.15v-7.607c.2-.1.542-.18.878-.18z"/></svg>