<svg xmlns="http://www.w3.org/2000/svg" width="80" height="60"><path d="M25.003 46.127H28.7v.664h-2.898v1.726h2.778v.664h-2.778v2.113h2.97v.664h-3.758zm8.668 1.457l-1.582 2.13 1.663 2.246h-.848l-1.272-1.72-1.273 1.72h-.86l1.7-2.3-1.555-2.086h.848l1.16 1.558 1.16-1.558zm1.793 3.72v2.32h-.723v-6.04h.723v.664q.227-.4.57-.578.348-.2.828-.2.797 0 1.293.633.5.633.5 1.663 0 1.03-.5 1.663-.496.633-1.293.633-.48 0-.828-.188-.344-.2-.57-.582zm2.445-1.527q0-.793-.328-1.242-.324-.453-.895-.453-.57 0-.898.453-.324.45-.324 1.242 0 .793.324 1.246.328.45.898.45.57 0 .895-.45.328-.453.328-1.246zm4.473-1.52q-.12-.07-.266-.102-.14-.034-.312-.034-.6 0-.938.4-.324.395-.324 1.137v2.305h-.723v-4.375h.723v.68q.227-.4.6-.6.363-.195.883-.195.074 0 .164.012.1.008.2.027zm4.332 1.336v.352H43.4q.047.742.445 1.133.402.387 1.117.387.414 0 .8-.102.4-.102.773-.305v.68q-.387.164-.793.252-.406.086-.824.086-1.047 0-1.66-.6-.6-.6-.6-1.648 0-1.074.578-1.703.582-.633 1.566-.633.883 0 1.394.57.516.566.516 1.543zm-.72-.2q-.008-.6-.332-.94-.32-.352-.85-.352-.602 0-.965.34-.36.34-.414.957zm4.688-1.668v.68q-.305-.156-.633-.234-.328-.078-.68-.078-.535 0-.805.164-.266.164-.266.492 0 .252.2.395.2.14.77.27l.246.055q.766.164 1.086.465.324.297.324.832 0 .6-.484.965-.48.356-1.324.356-.35 0-.734-.07-.38-.066-.8-.202v-.742q.4.207.785.312.387.102.766.102.508 0 .78-.172.273-.176.273-.492 0-.293-.2-.45-.195-.156-.863-.302L48.86 50q-.668-.14-.965-.43-.297-.293-.297-.8 0-.617.437-.953.437-.336 1.242-.336.4 0 .75.06.352.06.648.176zm4.172 0v.68q-.305-.156-.633-.234-.328-.078-.68-.078-.535 0-.805.164-.266.164-.266.492 0 .252.2.395.2.14.77.27l.246.055q.766.164 1.086.465.324.297.324.832 0 .6-.484.965-.48.356-1.324.356-.35 0-.734-.07-.38-.066-.8-.202v-.742q.4.207.785.312.387.102.766.102.508 0 .78-.172.273-.176.273-.492 0-.293-.2-.45-.195-.156-.863-.302l-.252-.06q-.668-.14-.965-.43-.297-.293-.297-.8 0-.617.437-.953.437-.336 1.242-.336.4 0 .75.06.35.06.648.176zM40 10c-5.5 0-10.278 1.063-14.233 3.16v16.755c0 3.526 1.325 6.474 3.83 8.528 2.326 1.908 9.52 5.053 10.403 5.435.836-.364 8.116-3.557 10.406-5.435 2.504-2.053 3.83-5.002 3.83-8.528V13.158C50.28 11.062 45.5 10 40 10zm8.128 3.244c1.637.02 3.244.123 4.798.267v16.403c0 3.152-1.144 5.698-3.35 7.516-1.972 1.624-7.917 4.287-9.575 5.018-1.68-.74-7.64-3.438-9.577-5.018-2.194-1.787-3.35-4.393-3.35-7.516V20.33c6.304-5.782 13.96-7.178 21.053-7.086zm-7.757 7.638c-1.35 0-2.44.302-3.338.88V37.9H39.5v-5.214c.247.073.606.14 1.114.14 2.748 0 4.327-2.477 4.327-6.094 0-3.6-1.626-5.853-4.58-5.853zm8.464 0c-1.63.047-3.333 1.228-3.323 3.228.004 1.317.37 2.302 2.4 3.5 1.1.64 1.53 1.06 1.547 1.838.02.864-.576 1.385-1.485 1.38-.8-.006-1.735-.445-2.368-1.008v2.28c.776.462 1.743.768 2.72.768 2.447 0 3.54-1.73 3.587-3.313.047-1.444-.353-2.536-2.422-3.752-.924-.542-1.653-.898-1.63-1.8.024-.88.755-1.2 1.456-1.183.865.008 1.702.487 2.22 1.017v-2.153c-.435-.335-1.357-.847-2.717-.805zm-20.496.25v7.784c0 2.624 1.24 3.953 3.7 3.953 1.516 0 2.786-.35 3.73-.994V21.133H33.3v9.334c-.27.185-.67.303-1.172.303-1.135 0-1.304-1.04-1.304-1.743v-7.894H28.34zm12.048 1.744c1.437 0 2.032 1.147 2.032 3.92 0 2.707-.68 4.015-2.106 4.015a2.33 2.33 0 0 1-.804-.15v-7.607c.2-.1.542-.18.878-.18z"/></svg>